<?xml version="1.0" standalone="no"?>
<!DOCTYPE svg PUBLIC "-//W3C//DTD SVG 20010904//EN"
 "http://www.w3.org/TR/2001/REC-SVG-20010904/DTD/svg10.dtd">
<svg version="1.0" xmlns="http://www.w3.org/2000/svg"
 width="800.000000pt" height="800.000000pt" viewBox="0 0 800.000000 800.000000"
 preserveAspectRatio="xMidYMid meet">
<metadata>
Created by potrace 1.11, written by Peter Selinger 2001-2013
</metadata>
<g transform="translate(0.000000,800.000000) scale(0.100000,-0.100000)"
fill="#000000" stroke="none">
<path d="M2227 7994 c-2 -2 -50 -10 -122 -19 -40 -6 -328 -61 -420 -81 -11 -2
-40 -7 -65 -10 -25 -3 -48 -8 -51 -10 -6 -3 -46 -9 -134 -20 -133 -16 -354
-21 -359 -9 -3 6 -5 1 -5 -10 -1 -11 13 -34 29 -52 17 -18 30 -34 30 -38 0 -3
19 -32 42 -64 24 -33 50 -72 59 -88 56 -96 193 -310 243 -378 60 -81 267 -295
287 -295 5 0 7 -5 3 -12 -5 -8 -2 -9 9 -5 11 4 17 1 17 -7 0 -7 8 -20 17 -27
10 -8 14 -9 10 -2 -4 6 -3 15 3 18 6 4 10 3 9 -2 -3 -19 2 -33 12 -33 5 0 8 4
5 8 -3 5 2 9 10 9 10 0 11 -4 4 -11 -13 -13 -13 -26 0 -26 5 0 32 -14 60 -31
28 -17 61 -32 74 -33 16 -1 22 -6 18 -16 -3 -8 -2 -12 3 -8 4 4 15 2 23 -5 13
-9 14 -9 8 1 -4 6 -3 12 2 12 6 0 13 -7 16 -16 3 -8 10 -12 16 -9 5 3 10 1 10
-4 0 -6 8 -11 18 -11 10 0 23 -5 30 -12 7 -7 12 -9 12 -5 0 4 10 2 23 -5 28
-16 39 -17 55 -5 7 6 15 7 19 3 3 -3 1 -6 -5 -6 -7 0 -12 -5 -12 -11 0 -6 9
-8 20 -4 11 3 20 2 20 -3 0 -5 6 -9 13 -9 6 -1 27 -6 45 -12 28 -8 33 -8 28 4
-3 8 0 17 6 21 7 5 8 2 3 -6 -6 -10 -4 -12 10 -6 15 5 16 4 5 -9 -7 -9 -8 -15
-2 -15 6 0 17 -3 25 -6 12 -4 14 0 11 18 -4 22 -4 22 5 2 11 -25 41 -35 65
-22 10 5 16 5 16 0 0 -5 12 -12 26 -15 18 -3 24 -1 20 9 -3 8 0 11 9 7 8 -3
13 -8 11 -12 -3 -4 14 -8 37 -9 23 -1 57 -3 75 -5 17 -2 32 0 32 3 0 3 9 6 20
7 11 1 18 -2 15 -7 -7 -11 36 0 54 14 11 8 13 8 8 0 -4 -7 2 -11 18 -11 14 0
22 4 18 10 -4 6 0 6 11 0 23 -13 88 -4 79 11 -5 8 -3 8 8 0 15 -12 49 -15 49
-4 0 4 14 4 31 2 18 -3 29 -1 26 4 -3 5 15 10 39 10 24 1 52 8 61 15 14 12 16
12 8 0 -6 -11 -4 -13 9 -8 10 4 26 7 37 7 11 0 19 7 19 18 0 13 2 14 9 4 10
-17 64 -5 54 12 -4 7 -2 7 7 -1 10 -9 18 -9 34 -1 12 6 22 11 24 10 1 -1 5 -2
10 -2 4 0 0 5 -8 10 -12 7 -10 9 7 7 12 0 20 -4 17 -8 -5 -9 23 -5 32 4 4 4
15 7 25 7 9 0 20 6 22 13 4 8 6 8 6 -2 1 -11 5 -10 17 5 8 10 13 14 10 7 -7
-13 31 -6 39 8 3 4 11 6 19 3 7 -3 18 5 25 18 6 13 9 15 6 5 -4 -14 -1 -17 13
-13 9 3 29 8 45 12 15 3 27 10 27 14 0 16 50 2 73 -20 l24 -23 -24 -96 c-12
-53 -23 -104 -23 -113 0 -13 -8 -18 -32 -19 -67 -1 -190 -7 -275 -14 -48 -4
-104 -9 -123 -10 -19 -2 -55 -6 -80 -9 -122 -16 -147 -19 -165 -22 -11 -2 -38
-6 -60 -9 -22 -3 -74 -12 -115 -20 -41 -8 -86 -16 -100 -19 -53 -9 -256 -59
-272 -67 -9 -5 -28 -10 -42 -11 -15 -1 -26 -7 -26 -12 0 -5 -3 -7 -6 -4 -5 6
-181 -49 -229 -71 -11 -5 -47 -19 -80 -32 -132 -49 -424 -199 -433 -221 -2 -4
-8 -8 -13 -8 -9 0 -40 -20 -88 -57 -9 -6 -47 -35 -86 -64 -92 -70 -248 -226
-313 -314 -28 -38 -55 -74 -60 -80 -46 -58 -144 -248 -182 -355 -7 -19 -19
-48 -25 -65 -54 -128 -169 -524 -190 -650 -3 -16 -7 -37 -9 -45 -1 -8 -6 -35
-10 -60 -10 -64 -14 -85 -16 -85 -1 0 -3 -18 -5 -40 -1 -22 -5 -58 -9 -80 -3
-22 -8 -73 -11 -114 -3 -41 -8 -78 -11 -83 -12 -19 -5 -358 11 -513 2 -22 6
-69 10 -105 3 -36 8 -72 11 -79 3 -8 7 -35 10 -60 3 -26 11 -68 18 -96 6 -27
12 -55 11 -61 0 -7 -20 -34 -45 -61 -107 -118 -161 -190 -240 -319 -35 -55
-114 -202 -116 -214 0 -3 -11 -27 -23 -55 -13 -27 -30 -68 -38 -90 -8 -22 -18
-49 -23 -60 -8 -19 -25 -72 -48 -145 -16 -51 -49 -196 -61 -265 -20 -117 -22
-131 -28 -195 -9 -88 -9 -500 1 -575 4 -33 9 -79 12 -101 3 -23 7 -53 9 -65 3
-13 8 -44 11 -69 3 -25 10 -63 16 -85 5 -22 12 -51 13 -65 5 -32 69 -277 93
-353 l18 -58 28 22 c21 17 30 19 41 9 8 -7 13 -16 10 -20 -3 -5 1 -11 7 -13
10 -4 9 -6 -1 -6 -10 -1 -11 -4 -2 -15 7 -8 14 -24 16 -37 8 -39 20 -41 56 -6
19 18 36 33 39 33 9 0 65 39 78 54 10 11 11 11 6 1 -5 -9 -3 -12 5 -7 6 4 9
18 7 32 -3 13 0 24 6 24 5 0 8 -7 4 -15 -3 -8 -3 -15 0 -15 11 0 69 35 103 62
19 15 38 25 41 23 13 -8 43 34 36 50 -3 9 -2 13 4 10 6 -3 10 -13 10 -21 0 -8
5 -12 10 -9 6 4 7 12 4 18 -4 7 -4 9 1 5 9 -8 66 21 78 40 5 7 12 10 18 7 12
-8 11 1 -2 28 -10 20 -9 20 9 -1 16 -21 20 -22 33 -10 19 20 62 43 73 40 5 -2
6 4 2 13 -3 9 -2 14 3 11 14 -9 71 18 72 34 0 12 2 12 6 1 4 -11 10 -8 25 10
11 13 17 18 13 11 -5 -10 -1 -10 19 0 14 6 26 15 26 20 0 4 6 7 13 6 6 -2 11
2 10 8 -1 7 6 10 17 7 11 -3 20 -1 20 4 0 5 10 10 22 10 13 1 28 9 34 18 7 9
16 15 20 14 22 -4 24 2 8 19 -10 9 -21 17 -25 17 -4 0 -11 4 -16 9 -5 5 -2 6
6 1 9 -5 12 -3 9 6 -3 8 -10 13 -16 12 -5 -1 -8 7 -5 17 6 22 -12 28 -20 8 -4
-10 -6 -10 -6 -1 -1 6 3 15 9 18 6 4 2 21 -10 45 -15 29 -24 38 -38 33 -14 -5
-14 -4 2 9 13 11 16 17 7 22 -6 4 -9 12 -6 17 4 5 2 9 -3 9 -5 0 -9 6 -10 13
-1 6 -3 25 -5 40 -1 16 -9 32 -17 37 -13 8 -13 10 0 10 10 0 11 3 3 11 -6 6
-9 18 -6 26 3 8 -3 21 -13 29 -18 14 -18 14 1 8 16 -6 18 -4 8 6 -8 9 -9 19
-2 31 7 13 5 20 -8 28 -17 10 -16 10 2 11 11 1 15 4 9 6 -7 3 -10 25 -7 55 3
46 1 50 -16 44 -22 -7 -37 10 -20 21 8 4 9 3 5 -4 -8 -14 1 -14 29 -2 11 5 16
9 10 9 -5 1 -10 16 -10 35 0 19 3 32 8 29 4 -2 7 3 7 12 0 10 -5 14 -12 10 -7
-4 -5 0 5 8 20 16 23 32 4 21 -9 -6 -9 -5 1 8 7 8 13 33 15 56 1 22 5 38 10
35 4 -2 7 3 7 12 0 12 -5 15 -18 11 -13 -5 -12 -2 4 11 25 20 49 86 40 109 -3
8 -2 12 3 9 5 -3 12 -1 16 5 3 5 1 10 -4 10 -6 0 -11 5 -11 11 0 5 4 7 10 4 5
-3 12 6 16 20 3 14 9 25 13 25 3 0 32 -48 64 -105 33 -58 81 -139 108 -181 27
-41 49 -79 49 -84 0 -6 4 -10 8 -10 4 0 16 -15 27 -32 10 -18 52 -78 94 -133
41 -55 110 -147 154 -205 159 -212 272 -346 388 -460 120 -118 162 -156 172
-152 4 1 7 -6 7 -15 0 -15 2 -16 10 -3 7 11 10 11 10 2 0 -21 62 -75 86 -75
13 0 21 -3 19 -8 -4 -6 14 -16 45 -24 3 -1 19 -8 35 -15 17 -7 35 -14 40 -16
6 -2 31 -10 56 -18 36 -11 49 -12 59 -3 9 9 11 9 8 -2 -4 -16 27 -24 94 -25
26 0 45 -3 43 -6 -2 -4 15 -8 38 -9 23 -1 58 -3 77 -5 19 -2 41 2 49 8 11 8
13 8 7 -2 -10 -17 2 -15 20 3 9 8 23 15 32 14 12 0 11 -3 -5 -9 -36 -14 -27
-20 22 -15 28 2 45 0 45 -7 0 -7 4 -7 13 -1 6 6 21 9 32 6 47 -9 64 -10 59 -2
-3 5 -1 9 5 9 5 0 11 -5 13 -11 2 -6 16 -11 31 -11 15 0 27 -5 27 -10 0 -6 8
-8 18 -6 10 3 23 -1 31 -9 10 -12 16 -12 29 -1 9 7 13 8 9 2 -9 -16 58 -35 74
-20 9 8 10 8 5 -1 -3 -6 -2 -14 4 -18 5 -3 10 0 10 7 0 9 3 9 10 -2 8 -13 10
-13 10 -1 0 11 4 9 15 -5 12 -15 16 -16 24 -5 6 9 10 10 13 1 2 -7 26 -12 60
-13 31 0 54 -5 52 -9 -8 -12 11 -9 24 4 9 9 12 9 12 -2 0 -7 3 -10 7 -7 3 4
12 2 20 -4 9 -8 13 -8 13 0 0 7 8 8 26 1 21 -8 29 -7 41 7 14 17 14 17 9 1 -3
-10 -1 -18 4 -18 6 0 10 6 10 13 0 8 3 9 8 1 10 -16 122 -13 122 3 0 7 5 13
11 13 5 0 7 -5 4 -10 -9 -14 28 -12 44 3 11 9 12 9 7 0 -5 -9 5 -11 41 -7 26
4 63 6 81 6 17 0 32 3 32 8 0 4 9 6 19 3 13 -3 21 1 24 14 4 16 5 16 6 1 0
-10 9 -18 19 -18 15 0 15 2 2 11 -11 8 -7 9 18 4 18 -4 32 -2 32 3 0 5 7 13
16 16 15 6 15 4 3 -11 -12 -15 -12 -16 4 -10 10 4 21 7 23 7 3 0 2 6 -2 13 -6
9 -4 9 7 1 22 -18 59 0 54 26 -2 11 1 20 7 20 5 0 8 -7 5 -15 -10 -23 12 -29
35 -8 12 10 18 13 15 6 -5 -7 0 -9 13 -6 11 3 20 9 20 12 0 4 6 8 13 9 44 3
98 12 108 18 6 3 15 1 19 -5 5 -9 11 -8 24 4 9 9 16 12 16 6 0 -5 13 -9 30 -9
16 1 27 5 23 11 -3 5 2 6 13 0 22 -10 85 -10 102 1 7 4 12 2 13 -6 0 -7 4 -4
9 7 7 16 9 16 9 4 1 -14 7 -16 39 -8 20 4 39 8 42 9 3 0 5 4 5 9 0 5 4 13 9
18 5 4 7 3 3 -2 -3 -6 -2 -17 4 -25 5 -8 9 -10 9 -5 0 6 19 11 43 12 23 2 43
7 45 13 2 5 8 10 13 10 6 0 7 -5 3 -11 -4 -7 3 -6 17 2 13 7 31 13 39 14 10 0
14 9 13 28 -1 15 2 27 8 27 5 0 8 -3 8 -7 -4 -25 3 -43 16 -43 8 0 15 5 15 10
0 6 3 9 8 9 4 -1 9 0 12 1 3 1 13 3 22 5 40 8 78 30 73 44 -5 12 -3 12 12 0
15 -12 16 -12 10 4 -3 9 -2 17 3 17 6 0 10 -5 10 -11 0 -12 63 32 94 65 10 12
23 20 28 18 6 -2 8 4 4 13 -3 9 -2 14 3 11 10 -7 61 31 61 45 0 6 -5 7 -12 3
-7 -4 -8 -3 -4 4 4 6 13 9 21 6 8 -3 20 6 29 23 8 15 15 24 16 20 0 -5 15 9
33 30 17 21 41 48 52 60 52 55 69 76 55 69 -9 -4 -8 -1 3 7 9 8 17 20 17 27 0
7 3 11 6 7 9 -9 86 92 79 103 -4 6 1 7 11 3 11 -4 15 -3 10 5 -3 6 -2 13 4 17
6 4 8 11 4 16 -3 5 -1 8 4 7 13 -4 53 42 46 53 -3 5 -10 7 -15 4 -5 -4 -9 -1
-9 4 0 6 10 10 22 8 15 -1 29 9 45 33 13 19 34 48 48 65 22 26 30 45 26 67 0
4 7 4 16 1 9 -4 14 -2 10 3 -3 6 7 25 23 44 16 19 27 37 24 41 -2 4 3 10 12
13 8 3 12 10 9 16 -3 5 -2 10 4 10 9 0 51 60 51 73 0 3 -9 4 -19 2 -15 -3 -18
1 -14 12 5 12 3 14 -7 8 -9 -6 -11 -4 -6 4 5 7 10 10 14 7 3 -3 11 2 19 12 13
15 13 15 4 -5 -14 -29 -14 -28 10 -30 17 -2 18 1 8 13 -7 8 -8 14 -3 13 18 -3
37 1 31 8 -4 3 -2 12 4 19 14 17 1 37 -20 29 -12 -5 -13 -4 -4 6 9 9 15 9 26
0 11 -9 17 -8 27 4 7 8 9 15 6 15 -4 0 2 9 13 21 11 12 25 34 31 50 7 16 16
29 19 29 4 0 13 16 21 35 8 19 16 35 19 35 4 0 12 9 19 21 11 17 11 20 0 14
-7 -3 -6 -1 3 7 17 14 65 86 68 103 1 6 9 17 17 26 11 12 11 18 1 28 -6 7 -7
12 -2 11 23 -5 34 1 42 23 12 34 9 61 -7 75 -13 10 -12 11 4 5 14 -5 17 -3 11
7 -5 8 -4 11 3 6 6 -3 9 -18 6 -31 -2 -14 -2 -25 1 -25 7 0 40 64 37 72 -1 5
3 8 9 8 7 0 9 10 7 25 -3 14 -1 28 5 32 6 3 7 1 3 -5 -4 -7 -3 -12 3 -12 6 0
13 12 17 27 4 16 11 33 18 38 17 15 36 53 36 70 0 8 4 15 9 15 5 0 11 9 14 21
4 14 2 19 -8 15 -7 -2 -16 1 -18 8 -4 9 2 12 17 9 15 -3 25 1 29 12 5 11 3 14
-6 10 -6 -4 -5 0 3 7 22 20 41 58 35 68 -3 6 34 -10 82 -34 61 -31 90 -40 95
-32 6 8 8 7 8 -2 0 -15 44 -33 82 -34 17 -1 25 -5 21 -12 -4 -6 2 -4 12 4 11
9 16 10 11 3 -4 -7 -2 -13 3 -13 6 0 11 6 11 13 0 9 2 9 9 -1 4 -7 23 -16 42
-19 19 -3 41 -6 49 -8 8 -1 21 3 29 9 11 8 13 8 8 -1 -9 -14 60 -13 82 1 9 6
12 5 7 -2 -4 -7 13 -9 56 -6 35 3 71 5 81 5 9 0 15 5 11 11 -4 7 0 7 13 -1 11
-6 23 -7 27 -4 6 7 20 10 66 15 14 2 31 10 38 18 10 11 12 11 6 1 -5 -10 -3
-12 5 -7 7 5 10 14 7 22 -3 7 -1 16 5 19 5 4 9 3 8 -2 -3 -20 2 -30 16 -30 8
0 15 6 15 14 0 7 4 13 8 13 5 0 9 7 9 15 0 10 -8 13 -24 11 -12 -3 -23 -1 -23
4 0 5 14 8 31 6 32 -4 49 15 82 87 6 15 16 27 22 27 5 0 3 5 -5 10 -13 8 -13
10 1 10 22 0 41 44 26 60 -9 10 -9 11 1 6 14 -8 36 39 26 56 -4 6 -2 8 3 5 12
-8 26 20 17 34 -3 5 0 9 7 9 8 0 8 4 -1 15 -11 13 -10 14 6 9 10 -4 16 -4 12
1 -4 4 -3 16 2 26 7 12 6 19 -3 22 -6 3 -3 6 7 6 18 1 18 2 2 20 -13 14 -14
21 -5 27 7 4 10 3 5 -4 -3 -6 -2 -13 4 -17 11 -7 25 39 17 59 -4 11 -1 13 11
9 14 -6 15 -4 4 9 -9 11 -9 18 -3 23 6 3 11 16 10 28 0 12 4 41 9 64 6 29 6
44 -2 47 -7 3 -7 5 2 5 15 1 16 43 1 58 -7 7 -6 15 5 25 11 12 12 18 3 28 -8
9 -8 11 -1 7 8 -5 12 9 12 43 0 31 -5 50 -12 50 -7 0 -7 3 -1 8 15 10 14 74 0
68 -6 -2 -12 2 -12 9 0 8 7 11 15 7 10 -3 13 -1 8 6 -6 11 -56 9 -75 -2 -15
-9 -24 13 -27 62 -2 50 -15 63 -53 53 -66 -19 -412 3 -561 34 -14 3 -38 8 -55
11 -67 12 -120 28 -127 38 -4 6 -5 25 -2 41 10 58 11 85 3 85 -5 0 -9 5 -9 11
0 5 5 7 10 4 6 -4 10 7 10 25 0 18 -4 29 -10 25 -5 -3 -10 -1 -10 4 0 6 6 11
13 11 9 0 12 34 11 143 0 78 -4 148 -8 155 -4 7 -2 12 6 13 7 0 4 4 -7 9 -11
5 -14 9 -8 9 7 1 12 12 11 25 -1 14 -7 22 -13 18 -5 -3 -4 1 2 10 7 8 11 17 9
19 -4 4 -16 71 -21 124 -2 17 -6 41 -9 55 -3 13 -8 40 -11 60 -3 19 -14 64
-25 99 -10 35 -17 68 -14 73 3 4 0 8 -6 8 -6 0 -8 5 -5 10 3 6 -2 10 -12 10
-14 0 -15 2 -4 9 8 5 11 16 6 30 -3 12 -11 18 -17 15 -7 -4 -8 -2 -4 4 9 14
-4 63 -14 57 -5 -3 -6 3 -3 14 3 10 -1 22 -8 26 -8 6 -10 4 -4 -5 6 -9 4 -11
-4 -5 -9 5 -10 10 -2 18 18 18 13 31 -6 16 -15 -13 -15 -12 -6 5 10 18 -2 83
-17 96 -3 3 -6 12 -6 20 0 25 -27 100 -35 100 -4 0 -6 8 -4 18 1 9 0 22 -4 27
-3 6 -6 12 -7 15 -1 8 -14 42 -32 85 -10 21 -17 42 -17 45 0 3 -4 11 -8 18 -5
6 -5 12 0 13 4 0 -3 5 -16 10 -19 7 -21 12 -11 23 9 12 2 32 -33 100 -25 46
-43 87 -39 90 3 3 -2 6 -12 6 -9 0 -15 -4 -11 -9 3 -5 1 -12 -4 -15 -10 -7 -9
13 1 29 3 6 -7 29 -23 53 -16 23 -29 47 -29 53 0 6 -4 7 -10 4 -5 -3 -10 1
-10 9 0 9 -4 16 -10 16 -5 0 -10 5 -10 10 0 13 -3 17 -132 164 -153 175 -366
355 -523 442 -11 6 -38 21 -60 34 -65 37 -231 120 -241 120 -5 0 -22 7 -38 15
-26 14 -208 84 -231 90 -5 1 -17 5 -25 8 -21 9 -142 48 -160 52 -21 5 -87 22
-135 35 -22 5 -55 13 -74 15 -18 3 -36 7 -40 10 -4 2 -23 7 -42 10 -19 3 -65
12 -104 20 -78 15 -247 41 -340 51 -107 12 -119 13 -220 19 -178 12 -196 15
-165 35 8 6 12 10 8 10 -4 0 4 24 17 53 18 41 21 57 12 73 -10 18 -9 18 8 4
17 -14 18 -13 12 3 -3 9 -2 17 4 17 10 0 25 32 31 66 2 12 -2 18 -10 16 -8 -1
-11 2 -7 8 3 6 10 8 15 5 15 -9 40 7 40 25 0 10 6 25 13 32 7 7 20 25 30 41
16 25 15 32 -7 28 -5 -1 -4 5 4 13 14 18 24 21 14 5 -4 -7 -2 -10 5 -8 7 3 12
8 11 13 -1 4 7 14 17 22 10 7 15 14 11 14 -5 0 0 9 10 19 29 33 43 51 38 51
-2 0 15 20 39 44 24 25 41 47 38 50 -3 2 5 10 17 16 15 8 19 18 16 33 -3 12
-3 16 0 10 8 -18 24 -16 24 3 0 8 4 13 9 10 5 -3 15 2 22 11 8 9 9 14 4 11 -6
-4 -11 2 -11 12 0 13 4 16 12 9 8 -6 27 4 60 31 27 23 48 45 47 49 -1 5 5 8
15 7 13 -1 17 7 18 32 1 17 -3 32 -7 32 -5 0 -9 7 -9 16 0 10 -5 14 -16 10 -8
-3 -13 -2 -10 3 3 5 -1 12 -10 15 -8 3 -12 2 -9 -4 3 -6 1 -10 -4 -10 -6 0
-11 5 -11 12 0 6 -10 3 -22 -8 -13 -10 -17 -12 -10 -4 30 34 4 106 -42 119
-71 18 -262 -83 -346 -183 -14 -17 -33 -39 -43 -49 -45 -45 -161 -252 -187
-332 -7 -22 -16 -44 -20 -50 -6 -9 -22 -58 -24 -77 -1 -4 -6 -12 -12 -18 -17
-17 -32 8 -35 60 -2 25 -8 48 -14 52 -6 5 -4 8 5 8 13 0 13 1 0 10 -13 8 -13
10 -1 10 11 0 10 4 -5 16 -10 8 -13 12 -5 8 10 -5 12 1 6 27 -8 34 -23 52 -37
43 -4 -3 -8 0 -8 6 0 7 8 9 22 4 19 -6 21 -5 11 8 -7 8 -14 23 -16 34 -1 10
-6 25 -10 32 -5 6 -5 12 -2 12 3 0 -2 13 -11 29 -10 17 -22 27 -28 24 -6 -4
-5 1 3 10 9 11 10 17 2 17 -6 0 -11 8 -11 19 0 19 -23 45 -32 36 -2 -3 -4 5
-4 18 1 12 -4 21 -11 20 -7 -2 -13 5 -13 15 0 22 -26 56 -130 165 -108 114
-161 163 -210 197 -12 8 -33 23 -46 33 -40 31 -226 122 -314 155 -103 38 -221
68 -315 81 -60 8 -340 12 -348 5z m2216 -598 c7 -17 -20 -30 -29 -14 -4 7 -3
8 4 4 7 -4 12 -1 12 8 0 20 6 20 13 2z m-875 -21 c-3 -3 -9 2 -12 12 -6 14 -5
15 5 6 7 -7 10 -15 7 -18z m955 -10 c-3 -9 -8 -14 -10 -11 -3 3 -2 9 2 15 9
16 15 13 8 -4z m-98 -13 c-3 -3 -11 0 -18 7 -9 10 -8 11 6 5 10 -3 15 -9 12
-12z m80 -22 c-3 -5 -12 -10 -18 -10 -7 0 -6 4 3 10 19 12 23 12 15 0z m-160
-10 c-3 -5 -12 -10 -18 -10 -7 0 -6 4 3 10 19 12 23 12 15 0z m65 -4 c0 -2 -9
-6 -20 -9 -11 -3 -18 -1 -14 4 5 9 34 13 34 5z m70 -31 c0 -2 -6 -5 -13 -8 -8
-3 -14 1 -14 8 0 7 6 11 14 8 7 -3 13 -6 13 -8z m-110 1 c0 -3 -4 -8 -10 -11
-5 -3 -10 -1 -10 4 0 6 5 11 10 11 6 0 10 -2 10 -4z m-43 -32 c-3 -3 -12 -4
-19 -1 -8 3 -5 6 6 6 11 1 17 -2 13 -5z m56 -18 c4 -10 0 -12 -15 -8 -15 4
-17 7 -6 13 17 11 15 11 21 -5z m-732 -33 c13 -16 12 -17 -3 -4 -10 7 -18 15
-18 17 0 8 8 3 21 -13z m609 9 c0 -5 -7 -17 -15 -28 -14 -18 -14 -17 -4 9 12
27 19 34 19 19z m-35 -11 c3 -5 2 -12 -3 -15 -5 -3 -9 1 -9 9 0 17 3 19 12 6z
m-540 -20 c3 -5 2 -12 -3 -15 -5 -3 -9 1 -9 9 0 17 3 19 12 6z m-41 -27 c3 -8
2 -12 -4 -9 -6 3 -10 10 -10 16 0 14 7 11 14 -7z m566 6 c0 -5 -2 -10 -4 -10
-3 0 -8 5 -11 10 -3 6 -1 10 4 10 6 0 11 -4 11 -10z m111 -17 c-12 -20 -14
-14 -5 12 4 9 9 14 11 11 3 -2 0 -13 -6 -23z m-39 -26 c3 -13 0 -24 -6 -24 -6
0 -11 13 -11 28 0 32 11 29 17 -4z m-595 7 c-8 -8 -48 -13 -43 -6 2 4 14 8 26
9 12 1 20 0 17 -3z m488 -22 c-3 -3 -11 0 -18 7 -9 10 -8 11 6 5 10 -3 15 -9
12 -12z m-48 -24 c-3 -8 -6 -5 -6 6 -1 11 2 17 5 13 3 -3 4 -12 1 -19z m117
13 c3 -5 -1 -11 -9 -14 -9 -4 -12 -1 -8 9 6 16 10 17 17 5z m-564 -16 c0 -2
-6 -5 -13 -8 -8 -3 -14 1 -14 8 0 7 6 11 14 8 7 -3 13 -6 13 -8z m525 -14 c-3
-6 3 -14 12 -20 10 -6 13 -11 8 -11 -13 0 -35 20 -35 32 0 4 5 8 11 8 5 0 8
-4 4 -9z m-45 -23 c0 -6 -6 -5 -15 2 -8 7 -15 14 -15 16 0 2 7 1 15 -2 8 -4
15 -11 15 -16z m-493 -10 c-3 -8 -6 -5 -6 6 -1 11 2 17 5 13 3 -3 4 -12 1 -19z
m457 -10 c-5 -7 -2 -9 9 -5 11 4 14 2 10 -9 -4 -11 -9 -12 -19 -3 -12 10 -11
29 2 29 3 0 2 -5 -2 -12z m-430 -16 c3 -5 -1 -9 -9 -9 -8 0 -15 4 -15 9 0 4 4
8 9 8 6 0 12 -4 15 -8z m521 -2 c3 -6 -1 -7 -9 -4 -18 7 -21 14 -7 14 6 0 13
-4 16 -10z m-131 -9 c3 -5 -1 -11 -9 -14 -9 -4 -12 -1 -8 9 6 16 10 17 17 5z
m83 -21 c-1 -21 -10 -18 -13 5 -1 8 2 15 6 15 5 0 8 -9 7 -20z m-476 -13 c-10
-9 -11 -8 -5 6 3 10 9 15 12 12 3 -3 0 -11 -7 -18z m-23 -12 c-3 -3 -9 2 -12
12 -6 14 -5 15 5 6 7 -7 10 -15 7 -18z m382 15 c0 -5 -5 -10 -11 -10 -5 0 -7
5 -4 10 3 6 8 10 11 10 2 0 4 -4 4 -10z m95 -10 c4 -6 -1 -7 -11 -3 -13 5 -15
3 -9 -7 5 -9 4 -11 -4 -6 -6 4 -9 12 -6 17 8 12 22 12 30 -1z m-66 -14 c9 -10
8 -15 -3 -19 -9 -4 -18 -1 -22 5 -5 7 -2 8 6 3 10 -6 12 -4 7 8 -8 21 -3 22
12 3z m-365 -15 c3 -5 -1 -11 -9 -14 -9 -4 -12 -1 -8 9 6 16 10 17 17 5z m331
-20 c-3 -5 -1 -12 5 -16 5 -3 10 -11 10 -18 0 -6 -7 -2 -15 9 -17 23 -19 34
-4 34 5 0 8 -4 4 -9z m95 -1 c18 -12 2 -12 -25 0 -13 6 -15 9 -5 9 8 0 22 -4
30 -9z m-415 -10 c-3 -5 -1 -10 6 -10 7 0 10 -2 7 -5 -3 -3 -13 -2 -22 1 -14
5 -15 9 -4 15 17 11 20 11 13 -1z m415 -14 c0 -2 -7 -7 -16 -10 -8 -3 -12 -2
-9 4 6 10 25 14 25 6z m-56 -22 c3 -8 2 -12 -4 -9 -6 3 -10 10 -10 16 0 14 7
11 14 -7z m-517 0 c-3 -3 -12 -4 -19 -1 -8 3 -5 6 6 6 11 1 17 -2 13 -5z m65
-8 c7 4 8 2 4 -5 -9 -13 -26 -5 -25 12 0 9 2 8 6 -1 2 -6 10 -9 15 -6z m378
11 c0 -2 -8 -11 -18 -20 -15 -14 -19 -15 -19 -2 0 8 4 12 9 9 4 -3 8 0 8 5 0
6 5 11 10 11 6 0 10 -2 10 -3z m-406 -23 c3 -8 2 -12 -4 -9 -6 3 -10 10 -10
16 0 14 7 11 14 -7z m435 2 c9 -10 8 -15 -3 -19 -11 -4 -13 -1 -9 10 5 12 3
14 -7 8 -9 -5 -11 -4 -6 3 9 15 11 15 25 -2z m-2110 -9 c8 -10 7 -14 -2 -14
-8 0 -14 6 -14 14 0 7 1 13 2 13 2 0 8 -6 14 -13z m1635 -9 c-5 -7 -2 -9 9 -5
11 4 14 2 10 -9 -4 -11 -9 -12 -19 -3 -12 10 -11 29 2 29 3 0 2 -5 -2 -12z
m-1560 -13 c5 0 10 -6 12 -13 1 -7 0 -8 -3 -2 -2 5 -8 8 -13 5 -4 -3 -14 3
-21 12 -12 15 -12 16 1 8 8 -6 19 -10 24 -10z m1363 8 c-4 -3 1 -11 10 -18 13
-9 13 -14 3 -20 -9 -5 -11 -4 -6 3 7 11 -6 17 -28 13 -5 -1 -4 5 4 13 7 9 15
16 18 16 3 0 2 -3 -1 -7z m-40 -18 c0 -8 -4 -12 -9 -9 -5 3 -6 10 -3 15 9 13
12 11 12 -6z m163 5 c0 -5 -5 -10 -11 -10 -5 0 -7 5 -4 10 3 6 8 10 11 10 2 0
4 -4 4 -10z m157 -5 c0 -8 -4 -12 -9 -9 -5 3 -6 10 -3 15 9 13 12 11 12 -6z
m339 3 c5 -7 3 -8 -6 -3 -10 6 -12 4 -7 -7 6 -17 -16 -19 -30 -3 -4 4 -3 5 3
2 7 -4 14 0 18 8 7 18 12 19 22 3z m74 8 c0 -2 -8 -10 -17 -17 -16 -13 -17
-12 -4 4 13 16 21 21 21 13z m-2011 -19 c8 -10 7 -14 -2 -14 -8 0 -14 6 -14
14 0 7 1 13 2 13 2 0 8 -6 14 -13z m1215 -8 c-5 -8 1 -10 19 -7 15 3 24 1 21
-3 -7 -12 -41 -12 -48 0 -3 4 -3 11 1 15 10 10 15 7 7 -5z m261 -8 c-3 -6 -11
-11 -16 -11 -5 0 -4 6 3 14 14 16 24 13 13 -3z m100 9 c3 -5 1 -10 -4 -10 -6
0 -11 5 -11 10 0 6 2 10 4 10 3 0 8 -4 11 -10z m-160 -10 c-3 -5 -14 -10 -23
-9 -14 0 -13 2 3 9 27 11 27 11 20 0z m-1355 -10 c0 -5 -2 -10 -4 -10 -3 0 -8
5 -11 10 -3 6 -1 10 4 10 6 0 11 -4 11 -10z m1235 -8 c-3 -3 -11 0 -18 7 -9
10 -8 11 6 5 10 -3 15 -9 12 -12z m698 -7 c-3 -9 -8 -14 -10 -11 -3 3 -2 9 2
15 9 16 15 13 8 -4z m-943 -10 c0 -2 -9 -3 -19 -2 -11 0 -18 5 -15 9 4 6 34 0
34 -7z m855 5 c3 -6 -1 -7 -9 -4 -18 7 -21 14 -7 14 6 0 13 -4 16 -10z m65
-28 c13 -11 12 -12 -4 -6 -15 6 -17 4 -11 -7 4 -8 6 -12 2 -9 -3 3 -6 10 -7
15 -1 6 -6 19 -12 30 -8 17 -7 18 4 5 8 -8 20 -21 28 -28z m-1752 3 c-3 -3 -9
2 -12 12 -6 14 -5 15 5 6 7 -7 10 -15 7 -18z m977 15 c3 -6 -1 -7 -9 -4 -18 7
-21 14 -7 14 6 0 13 -4 16 -10z m81 -10 c0 -12 -4 -16 -9 -11 -5 5 -6 14 -3
20 10 15 12 14 12 -9z m41 14 c-3 -3 -12 -4 -19 -1 -8 3 -5 6 6 6 11 1 17 -2
13 -5z m-1159 -16 c-2 -7 4 -11 12 -10 8 2 11 0 7 -4 -11 -11 -38 -14 -31 -3
3 5 -1 9 -8 9 -9 0 -9 3 2 10 19 13 20 12 18 -2z m793 -11 c-10 -9 -11 -8 -5
6 3 10 9 15 12 12 3 -3 0 -11 -7 -18z m189 13 c0 -5 -4 -10 -10 -10 -5 0 -10
5 -10 10 0 6 5 10 10 10 6 0 10 -4 10 -10z m104 -19 c-2 -3 -12 3 -22 13 -16
17 -16 18 5 5 12 -7 20 -15 17 -18z m-319 1 c-3 -3 -11 0 -18 7 -9 10 -8 11 6
5 10 -3 15 -9 12 -12z m-595 -2 c-8 -5 -19 -10 -25 -10 -5 0 -3 5 5 10 8 5 20
10 25 10 6 0 3 -5 -5 -10z m407 -5 c0 -8 -4 -12 -9 -9 -5 3 -6 10 -3 15 9 13
12 11 12 -6z m77 -1 c3 -8 2 -12 -4 -9 -6 3 -10 10 -10 16 0 14 7 11 14 -7z
m69 -4 c-3 -12 -8 -19 -11 -16 -5 6 5 36 12 36 2 0 2 -9 -1 -20z m119 11 c-8
-4 -13 -12 -12 -17 1 -5 -4 -10 -12 -12 -9 -2 -8 0 2 7 8 6 11 11 7 11 -5 0
-5 5 -2 10 3 6 12 10 18 10 8 0 8 -3 -1 -9z m67 -13 c-12 -23 -21 -24 -12 -1
5 12 3 14 -7 8 -8 -5 -11 -4 -7 2 3 5 13 10 21 10 11 0 13 -5 5 -19z m147 10
c4 -7 3 -8 -4 -4 -8 4 -12 0 -12 -11 0 -15 -2 -16 -10 -3 -6 9 -5 17 3 22 15
10 15 10 23 -4z m698 -4 c3 -8 2 -12 -4 -9 -6 3 -10 10 -10 16 0 14 7 11 14
-7z m-1389 -10 c22 8 18 0 -9 -18 -18 -11 -27 -13 -32 -4 -4 7 -3 8 4 4 16
-10 15 6 0 24 -11 12 -10 12 4 1 10 -7 25 -11 33 -7z m88 3 c7 3 8 2 4 -2 -14
-16 -36 -14 -29 3 4 10 7 12 10 4 2 -7 9 -9 15 -5z m1271 -9 c-5 -7 -9 -16 -9
-20 0 -3 -3 -9 -7 -13 -8 -8 -4 13 7 38 4 10 10 16 12 13 3 -3 1 -11 -3 -18z
m-1611 -11 c-5 -8 -8 -7 -11 1 -2 7 -9 9 -14 6 -7 -4 -8 -2 -4 4 4 6 13 9 21
6 8 -4 12 -11 8 -17z m93 11 c3 -4 -1 -5 -10 -4 -8 1 -18 5 -22 8 -3 4 1 5 10
4 8 -1 18 -5 22 -8z m54 1 c0 -5 -4 -8 -9 -4 -6 3 -14 -3 -20 -12 -6 -10 -11
-13 -11 -7 0 12 20 34 32 34 4 0 8 -5 8 -11z m290 1 c8 -5 11 -10 5 -10 -5 0
-17 5 -25 10 -8 5 -10 10 -5 10 6 0 17 -5 25 -10z m-38 -20 c-2 -8 3 -10 15
-6 14 6 15 4 6 -5 -13 -13 -36 -2 -27 13 5 8 1 9 -10 5 -11 -4 -15 -3 -11 4 9
14 31 5 27 -11z m125 5 c0 -8 -4 -15 -9 -15 -10 0 -11 14 -1 23 9 10 10 9 10
-8z m357 7 c2 -4 -4 -8 -14 -8 -10 0 -16 4 -14 8 3 4 9 8 14 8 5 0 11 -4 14
-8z m-199 -11 c-3 -6 3 -14 12 -20 10 -6 13 -11 8 -11 -13 0 -35 20 -35 32 0
4 5 8 11 8 5 0 8 -4 4 -9z m82 -6 c0 -8 -4 -12 -9 -9 -4 3 -8 9 -8 15 0 5 4 9
8 9 5 0 9 -7 9 -15z m886 -2 c-5 -12 -3 -14 8 -8 8 5 11 4 6 0 -12 -13 -36
-15 -44 -3 -3 6 -1 8 4 5 6 -4 13 0 17 8 3 8 8 15 10 15 3 0 2 -7 -1 -17z
m-1476 1 c-3 -3 -12 -4 -19 -1 -8 3 -5 6 6 6 11 1 17 -2 13 -5z m33 -15 c0 -5
-4 -9 -8 -9 -5 0 -9 7 -9 15 0 8 4 12 9 9 4 -3 8 -9 8 -15z m280 -4 c0 -2 -7
-1 -17 2 -11 4 -14 3 -9 -5 5 -8 1 -10 -10 -5 -11 4 -13 8 -6 11 7 2 9 8 6 14
-4 6 2 5 15 -1 11 -7 21 -14 21 -16z m92 -7 c-8 -8 -9 -4 -5 13 4 13 8 18 11
10 2 -7 -1 -18 -6 -23z m69 15 c3 1 1 -2 -3 -8 -5 -5 -15 -2 -26 9 -16 18 -16
18 4 8 12 -6 23 -10 25 -9z m-347 -9 c3 -8 0 -16 -6 -20 -7 -5 -8 -2 -3 6 6 9
4 12 -7 8 -8 -4 -15 -1 -15 6 0 17 25 16 31 0z m66 6 c0 -5 -2 -10 -4 -10 -3
0 -8 5 -11 10 -3 6 -1 10 4 10 6 0 11 -4 11 -10z m192 -9 c-4 -10 -7 -11 -10
-3 -2 7 -9 9 -14 6 -6 -4 -8 -3 -5 3 10 16 36 11 29 -6z m1089 -34 c-10 -9
-11 -8 -5 6 3 10 9 15 12 12 3 -3 0 -11 -7 -18z m-48 -4 c-3 -7 -6 -13 -8 -13
-2 0 -5 6 -8 13 -3 8 1 14 8 14 7 0 11 -6 8 -14z m62 -13 c-3 -5 -12 -10 -18
-10 -7 0 -6 4 3 10 19 12 23 12 15 0z m-101 -21 c-2 -4 2 -10 8 -12 8 -4 9 -6
2 -6 -6 -1 -17 5 -23 12 -8 10 -7 14 4 14 8 0 12 -4 9 -8z m77 -6 c12 -16 12
-17 -2 -6 -9 7 -19 10 -22 6 -4 -3 -7 -1 -7 5 0 17 16 15 31 -5z m2584 -1213
c3 -5 1 -10 -4 -10 -6 0 -11 5 -11 10 0 6 2 10 4 10 3 0 8 -4 11 -10z m103
-162 c-2 -6 -10 -13 -16 -14 -7 -1 -8 0 -2 3 5 2 8 9 4 14 -3 5 0 9 6 9 7 0
10 -5 8 -12z m42 -93 c0 -8 -2 -15 -4 -15 -2 0 -6 7 -10 15 -3 8 -1 15 4 15 6
0 10 -7 10 -15z m-22 -20 c-3 -3 -9 2 -12 12 -6 14 -5 15 5 6 7 -7 10 -15 7
-18z m11 -29 c9 -11 9 -16 -1 -22 -7 -4 -10 -4 -6 1 4 4 3 14 -3 22 -6 7 -9
13 -6 13 2 0 10 -6 16 -14z m66 -96 c3 -6 -1 -7 -9 -4 -18 7 -21 14 -7 14 6 0
13 -4 16 -10z m35 -64 c0 -2 -7 -7 -16 -10 -8 -3 -12 -2 -9 4 6 10 25 14 25 6z
m-30 -30 c0 -3 -4 -8 -10 -11 -5 -3 -10 -1 -10 4 0 6 5 11 10 11 6 0 10 -2 10
-4z m30 -6 c0 -5 -2 -10 -4 -10 -3 0 -8 5 -11 10 -3 6 -1 10 4 10 6 0 11 -4
11 -10z m26 -83 c1 -9 -2 -15 -7 -11 -5 3 -7 9 -4 14 3 4 0 11 -5 13 -6 3 -5
4 1 3 7 -1 13 -10 15 -19z m-16 -42 c0 -5 -5 -3 -10 5 -5 8 -10 20 -10 25 0 6
5 3 10 -5 5 -8 10 -19 10 -25z m40 11 c0 -3 -4 -8 -10 -11 -5 -3 -10 -1 -10 4
0 6 5 11 10 11 6 0 10 -2 10 -4z m-23 -33 c-4 -3 1 -12 11 -20 15 -13 15 -13
-6 -3 -19 9 -23 30 -5 30 4 0 3 -3 0 -7z m38 -53 c3 -5 1 -10 -4 -10 -6 0 -11
5 -11 10 0 6 2 10 4 10 3 0 8 -4 11 -10z m0 -69 c3 -5 0 -13 -6 -17 -7 -4 -9
-3 -5 4 3 5 0 13 -6 15 -9 4 -10 6 -1 6 6 1 14 -3 18 -8z m8 -38 c-5 -12 -3
-14 7 -8 9 6 11 4 5 -4 -5 -9 -11 -9 -17 -3 -6 6 -7 15 -4 21 11 17 16 13 9
-6z m36 -51 c-1 -16 -2 -16 -6 0 -3 11 -11 15 -21 12 -14 -5 -14 -4 -2 4 18
13 30 6 29 -16z m25 -41 c3 -5 -1 -11 -9 -14 -9 -4 -12 -1 -8 9 6 16 10 17 17
5z m-24 -41 c0 -5 -2 -10 -4 -10 -3 0 -8 5 -11 10 -3 6 -1 10 4 10 6 0 11 -4
11 -10z m36 -34 c2 -16 -24 -17 -30 0 -3 9 1 11 11 7 12 -5 14 -3 8 8 -5 8 -4
11 0 6 5 -4 10 -13 11 -21z m23 -59 c0 -9 -2 -8 -6 1 -2 6 -10 9 -15 6 -7 -4
-8 -2 -4 5 9 13 26 5 25 -12z m-39 -27 c0 -5 -2 -10 -4 -10 -3 0 -8 5 -11 10
-3 6 -1 10 4 10 6 0 11 -4 11 -10z m14 -22 c-5 -8 -2 -9 11 -4 15 5 16 4 5 -9
-17 -20 -29 -19 -25 3 5 23 4 22 11 22 3 0 2 -5 -2 -12z m43 -65 c0 -7 -4 -13
-8 -13 -4 0 -9 6 -12 13 -3 8 0 14 7 14 7 0 13 -6 13 -14z m19 -35 c4 -7 4
-10 -1 -6 -4 4 -15 2 -24 -5 -14 -11 -14 -10 -2 6 16 20 18 21 27 5z m-36 -32
c0 -2 -7 -7 -16 -10 -8 -3 -12 -2 -9 4 6 10 25 14 25 6z m37 -48 c-3 -8 -6 -5
-6 6 -1 11 2 17 5 13 3 -3 4 -12 1 -19z m-20 -15 c-4 -3 -1 -13 6 -22 11 -14
10 -14 -5 -2 -21 15 -23 31 -6 31 6 0 8 -3 5 -7z m10 -65 c-3 -8 -6 -5 -6 6
-1 11 2 17 5 13 3 -3 4 -12 1 -19z m-20 -10 c-3 -8 -6 -5 -6 6 -1 11 2 17 5
13 3 -3 4 -12 1 -19z m53 -5 c0 -5 -5 -15 -10 -23 -7 -12 -9 -10 -7 8 1 19 17
33 17 15z m0 -68 c-7 -8 -17 -15 -23 -15 -6 0 -2 7 9 15 25 19 30 19 14 0z
m-46 -4 c3 -5 -1 -11 -9 -14 -9 -4 -12 -1 -8 9 6 16 10 17 17 5z m36 -36 c7
-8 10 -15 6 -15 -3 0 -1 -12 5 -27 7 -19 7 -25 0 -18 -6 6 -12 21 -14 34 -2
12 -10 27 -18 32 -8 5 -9 9 -3 9 6 0 17 -7 24 -15z m-37 -42 c2 -13 6 -26 10
-29 4 -4 7 -12 7 -18 -1 -12 -17 12 -20 29 -1 6 -7 21 -12 35 -6 17 -6 22 1
15 6 -6 12 -20 14 -32z m40 -48 c-3 -9 -8 -14 -10 -11 -3 3 -2 9 2 15 9 16 15
13 8 -4z m21 -35 c-6 -6 -10 -3 -10 10 0 13 4 16 10 10 7 -7 7 -13 0 -20z
m-44 9 c0 -4 -9 -7 -19 -6 -11 0 -18 4 -16 7 6 9 35 8 35 -1z m30 -33 c0 -3
-4 -8 -10 -11 -5 -3 -10 -1 -10 4 0 6 5 11 10 11 6 0 10 -2 10 -4z m-43 -32
c-3 -3 -12 -4 -19 -1 -8 3 -5 6 6 6 11 1 17 -2 13 -5z m63 -8 c0 -3 -4 -8 -10
-11 -5 -3 -10 -1 -10 4 0 6 5 11 10 11 6 0 10 -2 10 -4z m-65 -16 c-3 -5 -12
-10 -18 -10 -7 0 -6 4 3 10 19 12 23 12 15 0z m18 -71 c-4 -15 -8 -17 -14 -8
-6 11 4 28 18 29 0 0 -1 -9 -4 -21z m-37 -4 c-1 -8 -5 -17 -8 -21 -5 -4 -4 16
1 34 3 9 9 -1 7 -13z m24 -32 c0 -5 -5 -15 -10 -23 -7 -12 -9 -10 -7 8 1 19
17 33 17 15z m34 -22 c3 -5 0 -14 -8 -20 -10 -9 -15 -8 -19 3 -4 11 -1 13 10
9 11 -4 14 -2 9 5 -4 7 -5 12 -2 12 3 0 7 -4 10 -9z m-53 -83 c-10 -11 -11 -9
-5 6 6 15 4 17 -6 11 -9 -6 -11 -4 -5 4 5 9 10 10 18 2 8 -8 7 -14 -2 -23z
m-17 -16 c3 -5 -1 -9 -9 -9 -8 0 -12 4 -9 9 3 4 7 8 9 8 2 0 6 -4 9 -8z m76
-36 c0 -3 -4 -8 -10 -11 -5 -3 -10 -1 -10 4 0 6 5 11 10 11 6 0 10 -2 10 -4z
m-24 -28 c3 -4 -1 -5 -10 -4 -8 1 -18 5 -22 8 -3 4 1 5 10 4 8 -1 18 -5 22 -8z
m885 -241 c-10 -9 -11 -8 -5 6 3 10 9 15 12 12 3 -3 0 -11 -7 -18z m-21 -17
c0 -5 -2 -10 -4 -10 -3 0 -8 5 -11 10 -3 6 -1 10 4 10 6 0 11 -4 11 -10z m44
-25 c-4 -8 -11 -12 -16 -9 -6 4 -5 10 3 15 19 12 19 11 13 -6z m-44 -35 c0 -3
-6 -7 -13 -7 -7 0 -13 8 -13 18 0 13 3 15 13 7 7 -6 13 -14 13 -18z m36 -20
c5 1 10 -4 12 -12 3 -11 2 -11 -6 0 -5 8 -13 13 -18 12 -5 -1 -10 4 -12 12 -3
11 -2 11 6 0 5 -8 13 -13 18 -12z m-19 -45 c5 -4 2 -4 -6 0 -10 6 -13 4 -9 -7
4 -9 0 -15 -8 -15 -8 0 -12 3 -9 5 3 3 -2 10 -11 16 -13 10 -11 12 10 11 14
-1 29 -5 33 -10z m38 5 c3 -5 1 -10 -4 -10 -6 0 -11 5 -11 10 0 6 2 10 4 10 3
0 8 -4 11 -10z m-15 -40 c0 -5 -4 -10 -10 -10 -5 0 -10 5 -10 10 0 6 5 10 10
10 6 0 10 -4 10 -10z m-67 -15 c-3 -9 -8 -14 -10 -11 -3 3 -2 9 2 15 9 16 15
13 8 -4z m30 -12 c-5 -12 -3 -14 7 -8 9 5 11 4 6 -4 -6 -9 -11 -9 -22 0 -12
10 -12 14 -2 20 18 12 18 11 11 -8z m43 -55 c4 -7 4 -10 -1 -6 -4 4 -13 0 -20
-9 -9 -13 -14 -13 -20 -3 -5 9 -4 11 3 6 7 -4 12 -1 12 8 0 19 16 21 26 4z
m-46 -38 c0 -5 -2 -10 -4 -10 -3 0 -8 5 -11 10 -3 6 -1 10 4 10 6 0 11 -4 11
-10z m35 -10 c-3 -5 -12 -10 -18 -10 -7 0 -6 4 3 10 19 12 23 12 15 0z m-55
-30 c0 -5 -4 -10 -10 -10 -5 0 -10 5 -10 10 0 6 5 10 10 10 6 0 10 -4 10 -10z
m55 0 c3 -5 1 -10 -4 -10 -6 0 -11 5 -11 10 0 6 2 10 4 10 3 0 8 -4 11 -10z
m-41 -22 c-5 -8 -1 -9 12 -5 18 7 18 6 2 -6 -10 -8 -15 -16 -12 -19 3 -4 0 -9
-7 -14 -8 -5 -10 -3 -4 6 6 10 3 12 -11 7 -18 -7 -18 -7 0 8 11 8 16 15 12 15
-4 0 -4 5 -1 10 3 6 8 10 11 10 3 0 2 -5 -2 -12z m-40 -68 c-6 -6 -10 -3 -10
10 0 13 4 16 10 10 7 -7 7 -13 0 -20z m-24 10 c0 -5 -5 -10 -11 -10 -5 0 -7 5
-4 10 3 6 8 10 11 10 2 0 4 -4 4 -10z m77 -16 c-3 -3 -12 -4 -19 -1 -8 3 -5 6
6 6 11 1 17 -2 13 -5z m-16 -22 c-7 -2 -18 1 -23 6 -8 8 -4 9 13 5 13 -4 18
-8 10 -11z m-98 -57 c-3 -9 -8 -14 -10 -11 -3 3 -2 9 2 15 9 16 15 13 8 -4z
m-10 -52 c-4 -10 -2 -14 5 -9 15 9 26 -14 13 -27 -9 -9 -10 -7 -5 7 5 13 4 17
-4 12 -13 -8 -26 10 -17 24 10 16 15 12 8 -7z m70 -28 c-7 -21 -12 -19 -10 4
0 11 5 18 9 15 4 -3 5 -11 1 -19z m-79 -11 c3 -8 2 -12 -4 -9 -6 3 -10 10 -10
16 0 14 7 11 14 -7z m41 -24 c-3 -5 -1 -10 6 -10 7 0 10 -3 6 -6 -9 -9 -28 6
-22 17 4 5 8 9 11 9 3 0 2 -4 -1 -10z m-40 -40 c4 -6 -1 -7 -11 -3 -13 5 -15
3 -9 -7 5 -9 4 -11 -4 -6 -6 4 -9 12 -6 17 8 12 22 12 30 -1z m-31 -28 c3 -5
-1 -9 -9 -9 -8 0 -15 4 -15 9 0 4 4 8 9 8 6 0 12 -4 15 -8z m60 -4 c-3 -4 -9
-8 -15 -8 -5 0 -9 4 -9 8 0 5 7 9 15 9 8 0 12 -4 9 -9z m-90 -32 c-3 -7 -12
-13 -21 -13 -14 0 -14 1 1 12 8 7 12 16 8 20 -4 5 -2 5 5 1 7 -4 10 -12 7 -20z
m46 -1 c5 3 14 -5 20 -17 9 -20 9 -21 -2 -7 -7 9 -17 16 -23 17 -5 0 -10 5
-12 12 -1 6 0 7 4 0 2 -5 9 -8 13 -5z m-20 -25 c0 -5 -4 -10 -10 -10 -5 0 -10
5 -10 10 0 6 5 10 10 10 6 0 10 -4 10 -10z m-67 -73 c7 3 8 2 4 -2 -14 -16
-36 -14 -29 3 4 10 7 12 10 4 2 -7 9 -9 15 -5z m-894 -34 c2 -1 -5 -1 -16 0
-11 0 -20 7 -20 14 0 10 4 10 16 1 9 -7 18 -13 20 -15z m-63 5 c5 -7 3 -8 -6
-3 -9 6 -12 4 -8 -7 4 -8 0 -15 -7 -15 -10 0 -11 5 -4 19 11 21 15 22 25 6z
m1037 -3 c-3 -9 -8 -14 -10 -11 -3 3 -2 9 2 15 9 16 15 13 8 -4z m-93 1 c0 -2
-9 -6 -20 -9 -11 -3 -18 -1 -14 4 5 9 34 13 34 5z m-877 -23 c-7 -2 -19 -2
-25 0 -7 3 -2 5 12 5 14 0 19 -2 13 -5z m35 -18 c-3 -3 -9 2 -12 12 -6 14 -5
15 5 6 7 -7 10 -15 7 -18z m-82 6 c-4 -5 -1 -12 4 -14 6 -3 5 -4 -2 -3 -15 3
-23 26 -8 26 6 0 9 -4 6 -9z m139 -1 c3 -5 1 -10 -4 -10 -6 0 -11 5 -11 10 0
6 2 10 4 10 3 0 8 -4 11 -10z m753 -11 c3 -11 2 -11 -7 1 -10 13 -12 13 -21 0
-5 -8 -10 -10 -10 -4 0 27 31 30 38 3z m92 -5 c0 -2 -9 0 -20 6 -11 6 -20 13
-20 16 0 2 9 0 20 -6 11 -6 20 -13 20 -16z m-777 -18 c3 -7 -4 -12 -17 -13
-11 0 -15 1 -8 4 10 4 10 8 1 19 -10 12 -9 13 4 8 8 -3 18 -11 20 -18z m-300
-11 c-3 -9 -8 -14 -10 -11 -3 3 -2 9 2 15 9 16 15 13 8 -4z m328 -8 c-10 -9
-11 -8 -5 6 3 10 9 15 12 12 3 -3 0 -11 -7 -18z m421 -1 c7 4 8 2 4 -4 -11
-17 -36 -3 -28 16 6 16 7 15 10 -1 2 -9 8 -14 14 -11z m86 3 c2 -9 0 -10 -5
-4 -4 6 -18 10 -30 9 -12 -1 -21 2 -18 6 7 12 49 4 53 -11z m82 16 c0 -2 -13
-8 -29 -13 -22 -8 -29 -8 -25 1 3 10 54 21 54 12z m64 -10 c-4 -8 -11 -15 -16
-15 -6 0 -5 6 2 15 7 8 14 15 16 15 2 0 1 -7 -2 -15z m-910 -4 c4 -5 -3 -7
-14 -4 -23 6 -26 13 -6 13 8 0 17 -4 20 -9z m514 -17 c5 3 9 -1 9 -9 0 -16
-31 -4 -43 18 -6 8 -3 8 9 -1 9 -8 20 -11 25 -8z m45 -1 c-4 -10 -2 -14 5 -9
6 4 16 -3 22 -16 11 -22 10 -22 -4 -4 -9 11 -16 16 -16 11 0 -5 -5 -4 -11 2
-6 6 -8 16 -5 22 11 17 16 13 9 -6z m47 -18 c0 -5 -5 -3 -10 5 -5 8 -10 20
-10 25 0 6 5 3 10 -5 5 -8 10 -19 10 -25z m250 20 c7 -9 8 -15 2 -15 -5 0 -12
7 -16 15 -3 8 -4 15 -2 15 2 0 9 -7 16 -15z m-556 -21 c7 -19 2 -18 -19 6 -16
17 -16 20 -3 15 9 -4 19 -13 22 -21z m47 -1 c-12 -20 -14 -14 -5 12 4 9 9 14
11 11 3 -2 0 -13 -6 -23z m362 15 c3 -8 -5 -14 -20 -14 -22 -2 -23 -1 -6 12
22 17 20 16 26 2z m-753 -13 c11 -13 10 -14 -5 -9 -14 6 -16 4 -10 -6 5 -8 4
-11 -3 -6 -6 4 -9 13 -5 21 7 19 8 19 23 0z m470 3 c0 -11 -12 -10 -30 2 -12
7 -10 9 8 7 12 0 22 -5 22 -9z m480 -3 c-7 -8 -17 -15 -23 -15 -6 0 -2 7 9 15
25 19 30 19 14 0z m-436 -11 c3 -8 2 -13 -3 -9 -5 3 -11 0 -13 -7 -3 -7 -7 -5
-11 6 -4 10 -3 15 3 11 6 -3 10 -1 10 4 0 16 7 13 14 -5z m276 -1 c0 -5 -5
-15 -10 -23 -7 -12 -9 -10 -7 8 1 19 17 33 17 15z m-820 -23 c0 -5 -4 -10 -10
-10 -5 0 -10 5 -10 10 0 6 5 10 10 10 6 0 10 -4 10 -10z m60 -25 c0 -5 -5 -3
-10 5 -5 8 -10 20 -10 25 0 6 5 3 10 -5 5 -8 10 -19 10 -25z m520 31 c0 -3 -4
-8 -10 -11 -5 -3 -10 -1 -10 4 0 6 5 11 10 11 6 0 10 -2 10 -4z m-610 -20 c0
-2 -7 -7 -16 -10 -8 -3 -12 -2 -9 4 6 10 25 14 25 6z m70 -11 c0 -2 -13 -11
-30 -20 -38 -19 -40 -11 -2 9 31 17 32 18 32 11z m-60 -53 c0 -5 -7 -9 -15 -9
-8 0 -12 4 -9 9 3 4 9 8 15 8 5 0 9 -4 9 -8z m60 -2 c0 -5 -4 -10 -10 -10 -5
0 -10 5 -10 10 0 6 5 10 10 10 6 0 10 -4 10 -10z m-26 -35 c-4 -8 -10 -13 -14
-10 -5 3 -10 -1 -13 -7 -3 -7 -4 -3 -4 8 1 15 6 20 16 16 10 -4 12 -1 6 8 -5
8 -4 11 3 6 6 -4 9 -13 6 -21z m-57 -4 c-1 -12 -6 -17 -16 -13 -10 4 -12 1 -6
-8 5 -8 4 -11 -3 -6 -6 4 -9 13 -6 21 4 8 10 12 15 9 5 -3 9 0 9 5 0 6 2 11 4
11 3 0 4 -9 3 -19z m-44 -34 c4 3 7 2 7 -4 0 -6 -12 -10 -27 -10 -16 0 -22 2
-15 4 6 3 9 10 5 16 -5 8 -2 8 9 0 8 -7 18 -10 21 -6z m71 -9 c-3 -4 -9 -8
-15 -8 -5 0 -9 4 -9 8 0 5 7 9 15 9 8 0 12 -4 9 -9z m-111 -38 c3 -11 0 -23
-6 -27 -7 -3 -9 -3 -5 2 4 4 0 14 -10 22 -9 8 -11 12 -4 8 6 -3 12 -1 12 4 0
18 7 12 13 -9z m67 5 c0 -2 -10 -9 -22 -15 -22 -11 -22 -10 -4 4 21 17 26 19
26 11z m-40 -43 c0 -5 -7 -9 -15 -9 -8 0 -12 4 -9 9 3 4 9 8 15 8 5 0 9 -4 9
-8z m60 -2 c0 -5 -4 -10 -10 -10 -5 0 -10 5 -10 10 0 6 5 10 10 10 6 0 10 -4
10 -10z m-76 -36 c3 -8 2 -13 -3 -9 -5 3 -11 0 -13 -7 -3 -7 -7 -5 -11 6 -4
10 -3 15 3 11 6 -3 10 -1 10 4 0 16 7 13 14 -5z m-5295 -27 c-2 -1 -13 -9 -24
-17 -19 -14 -19 -14 -6 3 7 9 18 17 24 17 6 0 8 -1 6 -3z m5261 -22 c7 -9 8
-15 2 -15 -5 0 -12 7 -16 15 -3 8 -4 15 -2 15 2 0 9 -7 16 -15z m56 -5 c0 -12
-4 -16 -9 -11 -5 5 -6 14 -3 20 10 15 12 14 12 -9z m-96 6 c0 -2 -7 -7 -16
-10 -8 -3 -12 -2 -9 4 6 10 25 14 25 6z m-5180 -12 c0 -8 -19 -13 -24 -6 -3 5
1 9 9 9 8 0 15 -2 15 -3z m5148 -29 c-3 -3 -9 2 -12 12 -6 14 -5 15 5 6 7 -7
10 -15 7 -18z m-5181 -1 c0 -7 -7 -10 -15 -6 -11 4 -13 1 -7 -8 5 -8 4 -11 -3
-6 -6 4 -9 12 -6 20 6 16 31 17 31 0z m5263 2 c-7 -7 -13 -7 -20 0 -6 6 -3 10
10 10 13 0 16 -4 10 -10z m-85 -16 c13 -6 15 -9 5 -9 -8 0 -22 4 -30 9 -18 12
-2 12 25 0z m48 -7 c-5 -12 -3 -14 8 -8 8 5 11 4 6 0 -10 -11 -37 -15 -37 -6
0 7 21 31 27 31 1 0 -1 -7 -4 -17z m-5263 -15 c0 -4 -4 -8 -9 -8 -6 0 -12 4
-15 8 -3 5 1 9 9 9 8 0 15 -4 15 -9z m60 -23 c0 -5 -5 -3 -10 5 -5 8 -10 20
-10 25 0 6 5 3 10 -5 5 -8 10 -19 10 -25z m5125 25 c-3 -5 -12 -10 -18 -10 -7
0 -6 4 3 10 19 12 23 12 15 0z m-5153 -45 c-8 -16 -9 -16 -15 -1 -4 10 -3 15
3 11 6 -3 10 -1 10 6 0 7 3 10 6 6 3 -3 2 -13 -4 -22z m5192 9 c3 -8 2 -12 -4
-9 -6 3 -10 10 -10 16 0 14 7 11 14 -7z m-27 -8 c0 -8 -6 -12 -15 -9 -11 5
-11 7 0 14 7 5 13 9 14 9 0 0 1 -6 1 -14z m58 -6 c-3 -5 0 -10 7 -11 10 0 10
-2 0 -6 -6 -2 -9 -10 -6 -15 4 -6 2 -8 -4 -5 -5 4 -9 15 -7 25 5 23 4 22 11
22 3 0 2 -4 -1 -10z m-5295 -10 c0 -5 -5 -10 -11 -10 -5 0 -7 5 -4 10 3 6 8
10 11 10 2 0 4 -4 4 -10z m5180 0 c0 -5 -5 -10 -11 -10 -5 0 -7 5 -4 10 3 6 8
10 11 10 2 0 4 -4 4 -10z m-5131 -24 c9 -10 8 -15 -3 -19 -11 -4 -13 -1 -9 10
5 12 3 14 -7 8 -9 -5 -11 -4 -6 3 9 15 11 15 25 -2z m5204 0 c3 -8 0 -17 -7
-19 -10 -4 -12 1 -9 14 6 23 9 24 16 5z m-5238 -27 c11 -16 1 -19 -13 -3 -7 8
-8 14 -3 14 5 0 13 -5 16 -11z m5162 -4 c0 -8 -4 -15 -9 -15 -10 0 -11 14 -1
23 9 10 10 9 10 -8z m38 5 c3 -6 -1 -7 -9 -4 -18 7 -21 14 -7 14 6 0 13 -4 16
-10z m49 -15 c-10 -8 -23 -15 -28 -15 -6 0 -1 7 10 15 10 8 23 15 28 15 6 0 1
-7 -10 -15z m-119 -13 c-3 -3 -11 0 -18 7 -9 10 -8 11 6 5 10 -3 15 -9 12 -12z
m-5137 -17 c-3 -3 -9 2 -12 12 -6 14 -5 15 5 6 7 -7 10 -15 7 -18z m68 13 c4
-7 3 -8 -4 -4 -8 4 -12 0 -12 -11 0 -15 -2 -16 -10 -3 -6 9 -5 17 3 22 15 10
15 10 23 -4z m5133 -10 c-11 -21 -15 -22 -25 -6 -5 7 -3 8 6 3 9 -6 12 -4 8 7
-4 8 0 15 7 15 10 0 11 -5 4 -19z m-32 -33 c0 -8 -4 -12 -9 -9 -4 3 -8 9 -8
15 0 5 4 9 8 9 5 0 9 -7 9 -15z m-42 -25 c-3 -5 1 -11 7 -14 7 -2 3 -4 -9 -2
-12 1 -26 6 -30 11 -5 4 -2 4 6 0 11 -6 13 -4 8 8 -4 11 -2 14 8 10 8 -3 13
-9 10 -13z m-5175 -10 c0 -5 -2 -10 -4 -10 -3 0 -8 5 -11 10 -3 6 -1 10 4 10
6 0 11 -4 11 -10z m5214 -2 c-5 -7 -2 -9 9 -5 11 4 14 2 10 -9 -4 -11 -9 -12
-19 -3 -12 10 -11 29 2 29 3 0 2 -5 -2 -12z m-5156 -16 c2 -7 -1 -12 -8 -12
-6 0 -9 4 -6 9 4 5 1 12 -4 14 -6 3 -5 4 2 3 6 -1 14 -8 16 -14z m5082 4 c0
-2 -7 -6 -15 -10 -8 -3 -15 -1 -15 4 0 6 7 10 15 10 8 0 15 -2 15 -4z m-5118
-33 c-12 -21 -39 -26 -39 -7 0 10 4 11 12 4 9 -8 14 -6 19 5 3 8 8 15 11 15 3
0 2 -8 -3 -17z m5075 -5 c2 -17 0 -19 -7 -8 -5 8 -6 18 -4 22 8 12 10 10 11
-14z m121 -13 c-3 -3 -9 2 -12 12 -6 14 -5 15 5 6 7 -7 10 -15 7 -18z m-48 0
c19 -22 8 -25 -12 -3 -10 10 -14 18 -9 18 5 0 14 -7 21 -15z m-5113 -27 c2
-18 0 -20 -7 -8 -12 18 -13 30 -2 30 4 0 9 -10 9 -22z m5038 12 c13 -6 15 -9
5 -9 -8 0 -22 4 -30 9 -18 12 -2 12 25 0z m58 -16 c-4 -11 -9 -12 -19 -3 -19
15 -18 20 3 12 12 -5 14 -3 8 7 -5 8 -4 11 3 6 6 -4 9 -13 5 -22z m-91 -12 c3
-12 -1 -18 -12 -18 -14 0 -15 4 -6 18 6 10 11 18 12 18 1 0 4 -8 6 -18z
m-5079 -17 c-3 -9 -8 -14 -10 -11 -3 3 -2 9 2 15 9 16 15 13 8 -4z m54 -27
c-3 -8 -6 -5 -6 6 -1 11 2 17 5 13 3 -3 4 -12 1 -19z m-26 -21 c-10 -9 -11 -8
-5 6 3 10 9 15 12 12 3 -3 0 -11 -7 -18z m-26 -7 c-3 -5 -12 -10 -18 -10 -7 0
-6 4 3 10 19 12 23 12 15 0z m5095 6 c0 -2 -7 -7 -16 -10 -8 -3 -12 -2 -9 4 6
10 25 14 25 6z m60 -2 c0 -8 -19 -13 -24 -6 -3 5 1 9 9 9 8 0 15 -2 15 -3z
m-105 -14 c3 -6 -1 -7 -9 -4 -18 7 -21 14 -7 14 6 0 13 -4 16 -10z m-5009 -22
c4 4 2 -1 -5 -10 -14 -19 -22 -23 -20 -10 3 20 -2 32 -13 26 -7 -5 -8 -3 -3 6
6 10 11 10 20 -3 7 -9 16 -13 21 -9z m4984 12 c8 -5 11 -10 5 -10 -5 0 -17 5
-25 10 -8 5 -10 10 -5 10 6 0 17 -5 25 -10z m50 -55 c0 -11 -29 -11 -33 -1 -4
10 1 12 14 9 10 -3 19 -7 19 -8z m-57 -10 c-3 -9 -8 -14 -10 -11 -3 3 -2 9 2
15 9 16 15 13 8 -4z m-25 -20 c-3 -3 -9 2 -12 12 -6 14 -5 15 5 6 7 -7 10 -15
7 -18z m-4958 -16 c0 -5 -4 -9 -8 -9 -5 0 -9 7 -9 15 0 8 4 12 9 9 4 -3 8 -9
8 -15z m4917 15 c-3 -4 -2 -14 3 -24 6 -12 5 -17 -5 -17 -7 0 -11 7 -7 15 4
11 2 13 -9 7 -12 -8 -12 -6 0 8 7 9 16 17 19 17 3 0 2 -3 -1 -6z m83 -16 c0
-4 -4 -8 -9 -8 -6 0 -12 4 -15 8 -3 5 1 9 9 9 8 0 15 -4 15 -9z m-4960 -23 c0
-1 -6 -8 -14 -14 -11 -9 -16 -9 -22 0 -5 8 -3 9 6 4 10 -6 12 -4 7 8 -4 11 -2
14 9 10 7 -3 14 -6 14 -8z m-63 -19 c0 -8 -6 -12 -15 -9 -11 5 -11 7 0 14 7 5
13 9 14 9 0 0 1 -6 1 -14z m4938 -5 c3 -5 0 -13 -6 -17 -8 -5 -9 -3 -4 6 6 10
4 12 -9 7 -10 -4 -15 -3 -11 3 8 13 22 13 30 1z m82 -6 c0 -8 -4 -15 -9 -15
-10 0 -11 14 -1 23 9 10 10 9 10 -8z m-5011 -27 c-9 -12 -16 -19 -16 -15 0 11
24 47 28 42 2 -2 -3 -14 -12 -27z m4891 -8 c-1 -11 -5 -20 -9 -20 -3 0 -6 9
-5 20 1 11 5 20 9 20 3 0 6 -9 5 -20z m67 8 c-3 -4 -9 -8 -15 -8 -5 0 -9 4 -9
8 0 5 7 9 15 9 8 0 12 -4 9 -9z m21 -18 c-3 -5 -12 -10 -18 -10 -7 0 -6 4 3
10 19 12 23 12 15 0z m-4961 -24 c-3 -8 -13 -17 -22 -21 -13 -5 -13 -2 3 15
21 24 26 25 19 6z m4897 -18 c-10 -11 -11 -9 -5 6 6 15 4 17 -6 11 -9 -6 -11
-4 -5 4 5 9 10 10 18 2 8 -8 7 -14 -2 -23z m-64 16 c-3 -3 -12 -4 -19 -1 -8 3
-5 6 6 6 11 1 17 -2 13 -5z m13 -18 c0 -2 -7 -7 -16 -10 -8 -3 -12 -2 -9 4 6
10 25 14 25 6z m25 -16 c-3 -4 0 -11 5 -13 6 -3 5 -4 -1 -3 -7 1 -13 10 -15
19 -1 9 2 15 7 11 5 -3 7 -9 4 -14z m-80 -10 c3 -6 -1 -7 -9 -4 -18 7 -21 14
-7 14 6 0 13 -4 16 -10z m120 0 c-3 -5 -1 -10 6 -10 7 0 10 -3 6 -6 -9 -9 -28
6 -22 17 4 5 8 9 11 9 3 0 2 -4 -1 -10z m-4879 -23 c1 -9 -2 -15 -7 -11 -5 3
-7 9 -4 14 3 4 0 11 -5 13 -6 3 -5 4 1 3 7 -1 13 -10 15 -19z m4819 -18 c5 -5
-5 -4 -23 2 -17 6 -32 13 -32 16 0 7 43 -8 55 -18z m18 -29 c-3 -11 -10 -23
-16 -27 -5 -3 -8 -2 -5 3 3 5 8 17 11 27 9 24 16 22 10 -3z m-4816 -10 c-1
-21 -10 -18 -13 5 -1 8 2 15 6 15 5 0 8 -9 7 -20z m4718 1 c3 -5 0 -13 -6 -17
-8 -5 -9 -3 -4 6 6 10 4 12 -9 7 -10 -4 -15 -3 -11 3 8 13 22 13 30 1z m-57
-36 c-3 -3 -9 2 -12 12 -6 14 -5 15 5 6 7 -7 10 -15 7 -18z m-4674 7 c3 -5 -1
-9 -9 -9 -8 0 -12 4 -9 9 3 4 7 8 9 8 2 0 6 -4 9 -8z m4661 -22 c3 -6 -1 -7
-9 -4 -18 7 -21 14 -7 14 6 0 13 -4 16 -10z m-4624 -34 c9 -19 9 -19 -4 -4 -9
11 -17 14 -23 8 -6 -6 -10 -3 -10 9 0 24 23 16 37 -13z m4679 10 c0 -3 -4 -8
-10 -11 -5 -3 -10 -1 -10 4 0 6 5 11 10 11 6 0 10 -2 10 -4z m40 -21 c0 -1 -6
-8 -14 -14 -11 -9 -16 -9 -22 0 -5 8 -3 9 6 4 10 -6 12 -4 7 8 -4 11 -2 14 9
10 7 -3 14 -6 14 -8z m-41 -39 c-3 -3 -11 5 -18 17 -13 21 -12 21 5 5 10 -10
16 -20 13 -22z m-81 -1 c-3 -3 -9 2 -12 12 -6 14 -5 15 5 6 7 -7 10 -15 7 -18z
m-44 3 c-5 -7 -2 -9 9 -5 11 4 14 2 10 -8 -3 -8 -9 -13 -13 -10 -5 3 -11 -1
-14 -7 -2 -7 -3 -2 -1 12 4 31 4 30 11 30 3 0 2 -5 -2 -12z m89 -8 c-3 -12 -8
-19 -11 -16 -5 6 5 36 12 36 2 0 2 -9 -1 -20z m-4603 -10 c0 -5 -5 -10 -11
-10 -5 0 -7 5 -4 10 3 6 8 10 11 10 2 0 4 -4 4 -10z m4560 -19 c0 -5 -8 -15
-17 -22 -16 -12 -17 -12 -6 2 7 9 10 19 6 22 -3 4 -1 7 5 7 7 0 12 -4 12 -9z
m-48 -30 c11 -11 10 -12 -2 -5 -24 14 -42 14 -37 0 3 -7 -1 -13 -8 -13 -8 0
-11 7 -7 15 4 11 1 13 -8 7 -8 -5 -11 -4 -7 2 9 14 54 10 69 -6z m72 10 c3 -5
-1 -11 -9 -14 -9 -4 -12 -1 -8 9 6 16 10 17 17 5z m21 -21 c-3 -5 -12 -10 -18
-10 -7 0 -6 4 3 10 19 12 23 12 15 0z m-54 -14 c5 3 9 0 9 -6 0 -15 -23 -7
-26 8 -1 7 0 8 3 2 2 -5 9 -8 14 -4z m-116 -6 c-3 -5 -1 -10 6 -10 7 0 10 -3
6 -6 -9 -9 -28 6 -22 17 4 5 8 9 11 9 3 0 2 -4 -1 -10z m48 -14 c4 -10 1 -13
-8 -9 -8 3 -12 9 -9 14 7 12 11 11 17 -5z m-4523 -6 c0 -5 -4 -10 -10 -10 -5
0 -10 5 -10 10 0 6 5 10 10 10 6 0 10 -4 10 -10z m4444 -16 c3 -8 2 -12 -4 -9
-6 3 -10 10 -10 16 0 14 7 11 14 -7z m136 11 c0 -2 -9 -9 -20 -15 -12 -6 -20
-7 -20 -1 0 5 8 12 18 14 9 3 18 5 20 6 1 0 2 -1 2 -4z m-4559 -37 c-10 -11
-11 -9 -5 6 6 15 4 17 -6 11 -9 -6 -11 -4 -5 4 5 9 10 10 18 2 8 -8 7 -14 -2
-23z m4468 22 c-11 -6 -16 -20 -14 -40 1 -16 -1 -30 -5 -30 -10 0 -7 50 3 68
5 6 14 12 20 12 7 0 5 -5 -4 -10z m-4614 -19 c-3 -6 -11 -11 -16 -11 -5 0 -4
6 3 14 14 16 24 13 13 -3z m88 6 c3 -8 -3 -13 -17 -14 -11 0 -15 1 -8 4 6 3
10 9 6 14 -3 5 -1 9 4 9 6 0 12 -6 15 -13z m117 3 c0 -5 -5 -10 -11 -10 -5 0
-7 5 -4 10 3 6 8 10 11 10 2 0 4 -4 4 -10z m4443 -20 c-3 -12 -8 -19 -11 -16
-5 6 5 36 12 36 2 0 2 -9 -1 -20z m-4607 -10 c0 -12 -4 -16 -9 -11 -5 5 -6 14
-3 20 10 15 12 14 12 -9z m81 -5 c0 -8 -4 -12 -9 -9 -4 3 -8 9 -8 15 0 5 4 9
8 9 5 0 9 -7 9 -15z m38 -4 c-3 -6 -11 -11 -16 -11 -5 0 -4 6 3 14 14 16 24
13 13 -3z m-207 -32 c-3 -8 -7 -3 -11 10 -4 17 -3 21 5 13 5 -5 8 -16 6 -23z
m122 17 c-1 -5 4 -13 12 -18 11 -8 11 -9 0 -6 -8 2 -13 7 -12 12 1 5 -4 13
-12 18 -11 8 -11 9 0 6 8 -2 13 -7 12 -12z m4439 -12 c-6 -8 -15 -12 -18 -8
-3 4 0 9 7 11 6 3 9 10 6 15 -4 7 -2 8 5 4 9 -6 9 -11 0 -22z m-4625 -6 c-4
-5 -9 -7 -12 -4 -3 3 -12 0 -21 -7 -14 -10 -14 -10 -4 4 13 16 46 23 37 7z
m157 -1 c-6 -8 -8 -16 -5 -19 3 -3 1 -9 -4 -12 -6 -3 -9 0 -8 6 2 16 15 38 23
38 3 0 0 -6 -6 -13z m4588 -1 c9 -10 8 -15 -3 -19 -11 -4 -13 -1 -9 10 5 12 3
14 -7 8 -9 -5 -11 -4 -6 3 9 15 11 15 25 -2z m-4622 -2 c-3 -3 -12 -4 -19 -1
-8 3 -5 6 6 6 11 1 17 -2 13 -5z m4548 -4 c-3 -5 -1 -10 6 -10 7 0 10 -2 7 -5
-3 -3 -13 -2 -22 1 -14 5 -15 9 -4 15 17 11 20 11 13 -1z m-4631 -23 c4 4 4
-1 0 -12 -5 -11 -9 -14 -12 -7 -2 7 -8 10 -13 7 -5 -4 -6 2 -2 11 5 13 3 15
-7 9 -9 -6 -11 -4 -5 5 6 10 11 10 20 -3 7 -9 15 -14 19 -10z m4548 -1 c7 4 8
2 4 -5 -4 -6 -12 -9 -17 -6 -5 4 -9 1 -9 -6 0 -7 -2 -10 -5 -7 -3 3 -2 13 2
24 4 11 8 13 11 6 2 -7 9 -9 14 -6z m55 -7 c-9 -6 -15 -14 -12 -20 4 -5 1 -9
-4 -9 -6 0 -11 4 -11 8 0 12 22 32 35 32 5 0 2 -5 -8 -11z m73 3 c0 -4 -10 -9
-22 -9 -18 -2 -20 0 -8 7 18 12 30 13 30 2z m-4820 -16 c0 -2 -7 -7 -16 -10
-8 -3 -12 -2 -9 4 6 10 25 14 25 6z m75 -16 c-3 -5 -14 -10 -23 -9 -14 0 -13
2 3 9 27 11 27 11 20 0z m4588 -17 c-5 -12 -3 -14 7 -8 8 5 11 4 6 -3 -4 -6
-13 -9 -22 -5 -11 4 -12 9 -3 19 15 19 20 18 12 -3z m125 3 c-2 -1 -11 -8 -21
-15 -15 -12 -17 -12 -11 4 6 14 4 16 -6 10 -8 -5 -11 -4 -7 3 4 5 16 8 27 5
12 -3 19 -6 18 -7z m-4813 -15 c3 -5 2 -12 -3 -15 -5 -3 -9 1 -9 9 0 17 3 19
12 6z m127 -8 c-6 -2 -10 -8 -8 -12 3 -4 -4 -8 -15 -8 -10 -1 -19 3 -19 8 0 6
4 8 9 4 5 -3 12 -1 16 5 3 5 12 10 18 9 9 0 8 -2 -1 -6z m4491 -8 c-3 -9 -8
-14 -10 -11 -3 3 -2 9 2 15 9 16 15 13 8 -4z m116 12 c-2 -1 -13 -9 -24 -17
-19 -14 -19 -14 -6 3 7 9 18 17 24 17 6 0 8 -1 6 -3z m27 -26 c-4 -6 -13 -11
-19 -11 -8 0 -7 3 2 9 8 5 10 14 6 22 -6 11 -5 11 5 2 7 -6 9 -16 6 -22z
m-4706 9 c-8 -5 -19 -10 -25 -10 -5 0 -3 5 5 10 8 5 20 10 25 10 6 0 3 -5 -5
-10z m-90 -20 c0 -5 -4 -10 -10 -10 -5 0 -10 5 -10 10 0 6 5 10 10 10 6 0 10
-4 10 -10z m35 -20 c-9 -16 -18 -30 -21 -30 -2 0 2 14 11 30 9 17 18 30 21 30
2 0 -2 -13 -11 -30z m4652 24 c-3 -3 -12 -4 -19 -1 -8 3 -5 6 6 6 11 1 17 -2
13 -5z m63 -14 c-6 -11 -13 -20 -16 -20 -2 0 0 9 6 20 6 11 13 20 16 20 2 0 0
-9 -6 -20z m-137 -5 c-3 -9 -8 -14 -10 -11 -3 3 -2 9 2 15 9 16 15 13 8 -4z
m-4637 -7 c5 -7 3 -8 -6 -3 -10 6 -12 4 -7 -9 5 -11 3 -15 -5 -10 -8 5 -9 2
-5 -9 3 -9 1 -19 -6 -23 -7 -4 -9 -4 -5 1 4 4 3 17 -3 28 -7 12 -7 17 -1 13 5
-3 12 1 16 9 7 18 12 19 22 3z m102 -8 c-7 -10 -14 -17 -17 -15 -4 4 18 35 25
35 2 0 -1 -9 -8 -20z m4543 -13 c-10 -9 -11 -8 -5 6 3 10 9 15 12 12 3 -3 0
-11 -7 -18z m96 -2 c0 -8 -4 -12 -9 -9 -4 3 -8 9 -8 15 0 5 4 9 8 9 5 0 9 -7
9 -15z m-4831 -23 c1 -7 0 -8 -3 -2 -2 5 -9 8 -14 4 -5 -3 -9 0 -9 6 0 15 23
7 26 -8z m114 8 c0 -5 -2 -10 -4 -10 -3 0 -8 5 -11 10 -3 6 -1 10 4 10 6 0 11
-4 11 -10z m4650 0 c-8 -5 -19 -10 -25 -10 -5 0 -3 5 5 10 8 5 20 10 25 10 6
0 3 -5 -5 -10z m46 -2 c5 -7 3 -8 -6 -3 -10 6 -12 4 -7 -7 4 -12 1 -14 -14
-11 -18 5 -19 6 -2 19 22 16 20 16 29 2z m-4843 -34 c-4 -11 -9 -12 -19 -3
-19 15 -18 20 3 12 12 -5 14 -3 8 7 -5 8 -4 11 3 6 6 -4 9 -13 5 -22z m4681
14 c-5 -8 -2 -9 11 -4 15 5 16 4 5 -9 -10 -12 -15 -13 -21 -3 -7 12 -3 28 7
28 3 0 2 -5 -2 -12z m69 -5 c-5 -12 -3 -14 7 -8 9 5 11 4 6 -3 -5 -9 -12 -8
-26 1 -20 12 -18 15 17 26 1 1 -1 -6 -4 -16z m-4794 4 c-2 -1 -12 -9 -22 -16
-15 -12 -17 -12 -11 3 3 9 13 16 22 16 8 0 13 -1 11 -3z m-66 -22 c-3 -9 -8
-14 -10 -11 -3 3 -2 9 2 15 9 16 15 13 8 -4z m140 3 c-13 -23 -12 -40 3 -34
20 8 17 -2 -4 -13 -16 -8 -19 -6 -18 12 2 22 13 47 22 47 3 0 2 -6 -3 -12z
m68 -5 c13 -16 12 -17 -3 -4 -10 7 -18 15 -18 17 0 8 8 3 21 -13z m-28 -18
c-3 -9 -8 -14 -10 -11 -3 3 -2 9 2 15 9 16 15 13 8 -4z m4716 8 c0 -5 -4 -17
-9 -28 -8 -17 -8 -16 -7 8 1 15 5 27 9 27 4 0 8 -3 7 -7z m-4879 -17 c0 -2 -7
-7 -16 -10 -8 -3 -12 -2 -9 4 6 10 25 14 25 6z m55 -5 c-9 -8 -36 -10 -30 -2
2 4 11 8 20 8 8 0 13 -3 10 -6z m4620 -1 c3 -5 1 -10 -4 -10 -6 0 -11 5 -11
10 0 6 2 10 4 10 3 0 8 -4 11 -10z m74 -12 c-12 -23 -21 -24 -12 -1 5 12 3 14
-7 8 -8 -5 -11 -4 -7 2 3 5 13 10 21 10 11 0 13 -5 5 -19z m58 0 c-3 -8 -6 -5
-6 6 -1 11 2 17 5 13 3 -3 4 -12 1 -19z m-4889 -13 c-3 -3 -9 2 -12 12 -6 14
-5 15 5 6 7 -7 10 -15 7 -18z m4916 -1 c3 -8 2 -12 -4 -9 -6 3 -10 10 -10 16
0 14 7 11 14 -7z m-4942 -6 c-15 -15 -16 -31 0 -22 7 4 8 3 4 -5 -4 -6 -12 -8
-18 -5 -7 5 -9 1 -5 -9 9 -25 0 -21 -14 6 -6 12 -8 19 -4 15 5 -5 14 1 22 12
8 11 17 20 21 20 3 0 1 -5 -6 -12z m122 -2 c-3 -9 -12 -12 -22 -9 -15 6 -9 11
25 22 1 1 0 -5 -3 -13z m1873 8 c-3 -3 -12 -4 -19 -1 -8 3 -5 6 6 6 11 1 17
-2 13 -5z m2833 -9 c0 -11 -29 -11 -33 -1 -4 10 1 12 14 9 10 -3 19 -7 19 -8z
m-2787 -9 c4 -10 1 -13 -8 -9 -8 3 -12 9 -9 14 7 12 11 11 17 -5z m2720 0 c4
-11 1 -13 -10 -9 -12 5 -14 3 -8 -7 5 -9 4 -11 -4 -6 -9 6 -9 11 0 22 14 17
16 17 22 0z m-4698 -17 c-4 -5 -12 -9 -18 -8 -9 0 -8 2 1 6 6 2 9 10 6 15 -4
7 -2 8 5 4 6 -4 9 -12 6 -17z m4602 15 c-3 -3 -12 -4 -19 -1 -8 3 -5 6 6 6 11
1 17 -2 13 -5z m198 -4 c-3 -5 -1 -10 6 -10 7 0 10 -3 6 -6 -9 -9 -28 6 -22
17 4 5 8 9 11 9 3 0 2 -4 -1 -10z m-153 -7 c-6 -2 -10 -9 -7 -13 3 -5 -5 -14
-17 -20 -22 -11 -22 -10 -4 4 11 9 16 16 12 16 -4 0 -4 5 -1 10 3 6 12 10 18
9 9 0 8 -2 -1 -6z m-4769 -24 c-8 -8 -13 -7 -18 2 -5 8 -4 10 3 5 7 -4 12 -2
12 5 0 7 3 9 7 6 4 -4 2 -12 -4 -18z m2163 -6 c-4 -4 -12 -1 -19 7 -9 10 -9
11 1 6 7 -4 12 -2 13 6 0 11 2 11 6 0 3 -7 2 -16 -1 -19z m2462 -4 c-3 -8 -7
-3 -11 10 -4 17 -3 21 5 13 5 -5 8 -16 6 -23z m-4463 11 c3 -5 1 -10 -4 -10
-6 0 -11 5 -11 10 0 6 2 10 4 10 3 0 8 -4 11 -10z m2062 -4 c0 -8 -6 -12 -15
-9 -11 5 -11 7 0 14 7 5 13 9 14 9 0 0 1 -6 1 -14z m2348 4 c-3 -5 -12 -10
-18 -10 -7 0 -6 4 3 10 19 12 23 12 15 0z m284 -4 c9 -11 9 -16 0 -22 -8 -4
-9 -3 -5 4 7 11 -6 17 -27 13 -5 -1 -6 3 -2 9 9 14 20 13 34 -4z m-4769 -21
c0 -1 -6 -8 -14 -14 -11 -9 -16 -9 -22 0 -5 8 -3 9 6 4 10 -6 12 -4 7 8 -4 11
-2 14 9 10 7 -3 14 -6 14 -8z m2115 -3 c-3 -3 -11 0 -18 7 -9 10 -8 11 6 5 10
-3 15 -9 12 -12z m2079 10 c3 -5 -1 -9 -9 -9 -8 0 -12 4 -9 9 3 4 7 8 9 8 2 0
6 -4 9 -8z m138 -14 c-7 -7 -16 -6 -29 1 -16 11 -15 11 6 5 17 -4 21 -3 16 6
-6 9 -4 11 4 5 9 -5 9 -11 3 -17z m111 5 c-5 -12 -3 -14 7 -8 9 5 11 4 6 -4
-6 -9 -11 -9 -22 0 -12 10 -12 14 -2 20 18 12 18 11 11 -8z m77 2 c0 -12 -19
-12 -23 0 -4 9 -1 12 9 8 7 -3 14 -7 14 -8z m-2307 -7 c-2 -5 -13 -8 -24 -8
-13 0 -18 -4 -13 -12 4 -7 3 -9 -1 -5 -19 17 -12 32 15 32 16 0 26 -3 23 -7z
m107 8 c0 -3 -4 -8 -10 -11 -5 -3 -10 -1 -10 4 0 6 5 11 10 11 6 0 10 -2 10
-4z m77 -2 c-3 -3 -12 -4 -19 -1 -8 3 -5 6 6 6 11 1 17 -2 13 -5z m43 2 c0 -2
-8 -10 -17 -17 -16 -13 -17 -12 -4 4 13 16 21 21 21 13z m110 -28 c-3 -3 1
-12 7 -20 10 -12 10 -15 -1 -15 -8 0 -13 7 -11 16 1 9 -7 24 -19 35 l-21 18
25 -14 c14 -9 23 -18 20 -20z m1583 20 c-2 -5 -13 -8 -23 -8 -10 0 -21 3 -23
8 -3 4 8 7 23 7 15 0 26 -3 23 -7z m107 2 c0 -5 -2 -10 -4 -10 -3 0 -8 5 -11
10 -3 6 -1 10 4 10 6 0 11 -4 11 -10z m154 -4 c-10 -8 -21 -12 -24 -10 -5 6
21 24 34 24 6 0 1 -6 -10 -14z m260 -15 c-2 -3 -12 3 -22 13 -16 17 -16 18 5
5 12 -7 20 -15 17 -18z m-4714 9 c0 -5 -4 -10 -10 -10 -5 0 -10 5 -10 10 0 6
5 10 10 10 6 0 10 -4 10 -10z m110 6 c0 -2 -8 -10 -17 -17 -16 -13 -17 -12 -4
4 13 16 21 21 21 13z m2440 -6 c-8 -5 -19 -10 -25 -10 -5 0 -3 5 5 10 8 5 20
10 25 10 6 0 3 -5 -5 -10z m185 -10 c-3 -4 0 -11 5 -13 6 -3 5 -4 -1 -3 -7 1
-13 10 -15 19 -1 9 2 15 7 11 5 -3 7 -9 4 -14z m1302 -2 c-3 -8 -6 -5 -6 6 -1
11 2 17 5 13 3 -3 4 -12 1 -19z m43 18 c0 -2 -7 -7 -16 -10 -8 -3 -12 -2 -9 4
6 10 25 14 25 6z m533 -10 c3 -8 0 -17 -7 -19 -10 -4 -12 1 -9 14 6 23 9 24
16 5z m63 2 c5 -7 3 -8 -6 -3 -10 6 -12 4 -6 -11 5 -14 4 -16 -5 -7 -6 6 -8
16 -5 22 9 14 13 14 22 -1z m-2322 -7 c4 -5 -3 -7 -14 -4 -23 6 -26 13 -6 13
8 0 17 -4 20 -9z m1664 -16 c-3 -3 -9 2 -12 12 -6 14 -5 15 5 6 7 -7 10 -15 7
-18z m317 15 c4 -6 -1 -7 -11 -3 -13 5 -15 3 -9 -7 5 -9 4 -11 -4 -6 -6 4 -9
12 -6 17 8 12 22 12 30 -1z m-1769 -29 c-9 -14 -26 -14 -26 0 0 5 5 7 12 3 8
-5 9 -1 4 12 -5 14 -4 16 5 7 6 -6 8 -16 5 -22z m244 23 c0 -8 -19 -13 -24 -6
-3 5 1 9 9 9 8 0 15 -2 15 -3z m1170 2 c0 -3 -4 -8 -10 -11 -5 -3 -10 -1 -10
4 0 6 5 11 10 11 6 0 10 -2 10 -4z m437 -11 c0 -8 -4 -12 -9 -9 -4 3 -8 9 -8
15 0 5 4 9 8 9 5 0 9 -7 9 -15z m123 8 c-1 -13 -30 -48 -30 -36 0 7 5 15 10
18 6 4 8 11 5 16 -4 5 -1 9 4 9 6 0 11 -3 11 -7z m-4512 -27 c-10 -7 -14 -17
-10 -21 4 -5 2 -5 -5 -1 -7 4 -10 13 -7 21 4 8 10 12 15 9 5 -3 9 0 9 7 0 7 3
9 7 5 5 -4 0 -13 -9 -20z m2309 18 c-3 -3 -12 -4 -19 -1 -8 3 -5 6 6 6 11 1
17 -2 13 -5z m50 -16 c-3 -8 -6 -5 -6 6 -1 11 2 17 5 13 3 -3 4 -12 1 -19z
m90 -10 c-3 -7 -5 -2 -5 12 0 14 2 19 5 13 2 -7 2 -19 0 -25z m218 22 c3 -6
-1 -7 -9 -4 -18 7 -21 14 -7 14 6 0 13 -4 16 -10z m81 -19 c-4 -6 -13 -11 -19
-11 -8 0 -7 3 2 9 8 5 10 14 6 22 -6 11 -5 11 5 2 7 -6 9 -16 6 -22z m59 19
c-3 -5 -12 -10 -18 -10 -7 0 -6 4 3 10 19 12 23 12 15 0z m43 -21 c-3 -8 -7
-3 -11 10 -4 17 -3 21 5 13 5 -5 8 -16 6 -23z m1226 -2 c4 4 4 -1 0 -10 -7
-20 -7 -20 -23 13 -11 22 -10 23 2 8 8 -10 17 -15 21 -11z m46 13 c-8 -5 -19
-10 -25 -10 -5 0 -3 5 5 10 8 5 20 10 25 10 6 0 3 -5 -5 -10z m64 -5 c11 -8
15 -15 9 -15 -7 0 -15 5 -18 10 -4 6 -11 8 -16 5 -5 -4 -9 -1 -9 4 0 15 11 13
34 -4z m86 11 c0 -2 -7 -7 -16 -10 -8 -3 -12 -2 -9 4 6 10 25 14 25 6z m100
-19 c0 -2 -8 -3 -18 -3 -10 0 -19 6 -19 13 0 8 6 9 19 2 10 -5 18 -11 18 -12z
m-505 4 c3 -5 0 -13 -6 -17 -8 -5 -9 -3 -4 6 6 10 4 12 -9 7 -10 -4 -15 -3
-11 3 8 13 22 13 30 1z m-1188 -7 c-3 -3 -12 -4 -19 -1 -8 3 -5 6 6 6 11 1 17
-2 13 -5z m97 -2 c3 -5 -1 -9 -9 -9 -8 0 -12 4 -9 9 3 4 7 8 9 8 2 0 6 -4 9
-8z m1371 -10 c-3 -3 -11 0 -18 7 -9 10 -8 11 6 5 10 -3 15 -9 12 -12z m85 8
c0 -5 -2 -10 -4 -10 -3 0 -8 5 -11 10 -3 6 -1 10 4 10 6 0 11 -4 11 -10z
m-320 -10 c-13 -9 -13 -11 0 -20 9 -6 10 -10 3 -10 -15 0 -26 17 -18 30 3 6
12 10 18 10 7 0 6 -4 -3 -10z m-960 -12 c0 -3 -9 -6 -20 -5 -11 1 -20 5 -20 9
0 3 9 6 20 5 11 -1 20 -5 20 -9z m151 -5 c13 -16 12 -17 -3 -4 -10 7 -18 15
-18 17 0 8 8 3 21 -13z m629 13 c0 -3 -4 -8 -10 -11 -5 -3 -10 -1 -10 4 0 6 5
11 10 11 6 0 10 -2 10 -4z m58 -11 c3 -3 -4 -4 -16 -2 -12 2 -24 6 -28 10 -4
3 4 4 16 2 12 -2 25 -7 28 -10z m172 6 c0 -5 -7 -12 -16 -15 -14 -5 -15 -4 -4
9 14 17 20 19 20 6z m90 -3 c0 -11 -12 -10 -30 2 -12 7 -10 9 8 7 12 0 22 -5
22 -9z m-1023 -13 c0 -8 -4 -15 -9 -15 -10 0 -11 14 -1 23 9 10 10 9 10 -8z
m657 6 c4 -5 -3 -7 -14 -4 -23 6 -26 13 -6 13 8 0 17 -4 20 -9z m-706 -26 c-3
-3 -9 2 -12 12 -6 14 -5 15 5 6 7 -7 10 -15 7 -18z m95 5 c-6 -22 -18 -26 -29
-8 -4 6 -3 8 3 5 6 -4 13 0 17 8 8 22 15 18 9 -5z m430 5 c-3 -9 -8 -14 -10
-11 -3 3 -2 9 2 15 9 16 15 13 8 -4z m247 -5 c8 -15 8 -18 -3 -14 -8 3 -14 11
-14 19 0 20 4 19 17 -5z m-570 -5 c0 -12 -19 -12 -23 0 -4 9 -1 12 9 8 7 -3
14 -7 14 -8z m88 -10 c-3 -3 -9 2 -12 12 -6 14 -5 15 5 6 7 -7 10 -15 7 -18z
m169 3 c-3 -8 -6 -5 -6 6 -1 11 2 17 5 13 3 -3 4 -12 1 -19z m168 12 c-3 -5
-12 -10 -18 -10 -7 0 -6 4 3 10 19 12 23 12 15 0z m268 -4 c6 -15 -17 -16 -30
-1 -4 4 -2 5 5 1 6 -4 12 -2 12 3 0 15 7 14 13 -3z m-627 -8 c5 -7 3 -8 -6 -3
-10 6 -12 4 -6 -11 5 -14 4 -16 -5 -7 -6 6 -8 16 -5 22 9 14 13 14 22 -1z
m304 3 c0 -6 -4 -12 -8 -15 -5 -3 -9 1 -9 9 0 8 4 15 9 15 4 0 8 -4 8 -9z m99
-14 c0 -9 -2 -8 -6 1 -2 6 -10 9 -15 6 -7 -4 -8 -2 -4 5 9 13 26 5 25 -12z
m-249 9 c0 -2 -7 -7 -16 -10 -8 -3 -12 -2 -9 4 6 10 25 14 25 6z m-290 -10 c0
-3 -4 -8 -10 -11 -5 -3 -10 -1 -10 4 0 6 5 11 10 11 6 0 10 -2 10 -4z m216 -8
c5 -7 3 -8 -6 -3 -10 6 -12 4 -6 -10 5 -15 4 -16 -9 -5 -13 11 -13 15 -3 21
17 11 16 11 24 -3z m164 -13 c11 2 18 0 15 -5 -10 -17 -55 2 -55 23 0 7 5 4
10 -5 6 -10 19 -15 30 -13z m27 19 c-3 -3 -12 -4 -19 -1 -8 3 -5 6 6 6 11 1
17 -2 13 -5z m62 -16 c-11 -21 -15 -22 -25 -6 -5 7 -3 8 6 3 9 -6 12 -4 8 7
-4 8 0 15 7 15 10 0 11 -5 4 -19z m-141 0 c-2 -6 -12 -12 -21 -14 -9 -1 -15 2
-11 7 3 5 10 7 15 4 5 -4 9 -1 9 4 0 6 3 11 6 11 3 0 4 -5 2 -12z m185 -3 c-3
-9 -8 -14 -10 -11 -3 3 -2 9 2 15 9 16 15 13 8 -4z m-282 -18 c-10 -9 -11 -8
-5 6 3 10 9 15 12 12 3 -3 0 -11 -7 -18z m335 11 c3 -4 -1 -5 -10 -4 -8 1 -18
5 -22 8 -3 4 1 5 10 4 8 -1 18 -5 22 -8z m59 2 c3 -6 -1 -7 -9 -4 -18 7 -21
14 -7 14 6 0 13 -4 16 -10z"/>
<path d="M7905 2930 c-3 -5 -1 -10 4 -10 6 0 11 5 11 10 0 6 -2 10 -4 10 -3 0
-8 -4 -11 -10z"/>
</g>
</svg>
